<svg xmlns="http://www.w3.org/2000/svg"><defs><font id="0305dc8e93f36aff0cb18390b872a2ba" horiz-adv-x="1024"><font-face font-family="Geomanist-Ultra" font-weight="900" units-per-em="2048" panose-1="2 0 5 3 4 0 0 2 0 4" ascent="1536" descent="-512" x-height="1090" cap-height="1434" bbox="-172 -723 2652 2062" underline-thickness="102" underline-position="-102" unicode-range="U+0020-F6C3"/><glyph glyph-name="ellipsis" unicode="..." horiz-adv-x="1792" d="M1260 211q0 100 71 169 72 69 185 69 114 0 186-69t72-169-73-169-185-69-184 69-72 169zM904-27q-112 0-184 69t-73 169q0 100 72 169 73 69 185 69t185-69 73-169-74-169q-72-69-184-69zm-629 0Q162-27 90 42T18 211t72 169 184 69 186-69q72-69 72-169T460 42 275-27z"/><glyph glyph-name=".notdef" horiz-adv-x="1040" d="M172 102h696L520 625zm-61 93l348 522-348 522V195zm471 522l348-522v1044zm-62 92l348 522H172zM8 0v1434h1024V0H8z"/><glyph glyph-name=".null" horiz-adv-x="0"/><glyph glyph-name="nonmarkingreturn" horiz-adv-x="681"/><glyph glyph-name="space" horiz-adv-x="395"/><glyph glyph-name="exclam" unicode="!" horiz-adv-x="671" d="M119 477l-35 957h504l-35-957H119zM334-27q-112 0-184 69T78 211t72 169 184 69 186-69q72-69 72-169T519 42 334-27z"/><glyph glyph-name="quotedbl" unicode="&quot;" horiz-adv-x="911" d="M489 858l-18 576h389l-18-576H489zm-419 0l-19 576h385l-16-576H70z"/><glyph glyph-name="numbersign" unicode="#" horiz-adv-x="1396" d="M664 793l-33-152h88l33 152h-88zM584 0l69 328h-88L496 0H96l70 328H20l64 313h147l33 152H117l63 313h150l69 328h400l-70-328h88l70 328h399l-69-328h157l-63-313h-160l-33-152h160l-64-313h-161L983 0H584z"/><glyph glyph-name="dollar" unicode="$" horiz-adv-x="1181" d="M455-152v138Q279 19 172 123 66 227 23 346l370 201q90-152 191-152 41 0 41 33 0 57-149 117T210 695q-62 48-104 128-41 80-40 181 0 172 104 290t285 152v125h305v-129q152-37 250-133t129-191L788 913q-27 53-69 93-43 38-87 38t-44-36 57-71q57-36 140-74t166-89 141-138 57-200q0-174-102-292T760-10v-142H455z"/><glyph glyph-name="percent" unicode="%" horiz-adv-x="1830" d="M1346 342q0-72 49-72t49 72-49 72-49-72zm450 0q0-156-114-262T1394-26 1107 80Q993 186 993 342t114 262 288 106q173 0 287-106t114-262zM383 1092q0-72 49-72t49 72-49 71q-49 1-49-71zm451 0q0-156-114-262T432 723q-174 0-288 106Q30 936 30 1092t114 262 288 106 288-106 114-262zM190 0l1055 1434h393L584 0H190z"/><glyph glyph-name="ampersand" unicode="&amp;" horiz-adv-x="1421" d="M590 1044q0-57 55-108 57 40 57 108t-57 68q-23 0-39-18t-16-50zm11-700q46 0 77 21-14 12-164 167-35-32-35-80t38-78 84-30zM569-27q-247 0-400 131T16 442q0 236 238 392-88 104-88 233 0 174 129 284 129 109 349 109t347-114 127-287q0-203-221-348l80-78q18 35 18 65h389q0-92-32-192t-88-170l135-131-295-289L963 61Q816-27 569-27z"/><glyph glyph-name="quotesingle" unicode="'" horiz-adv-x="487" d="M70 858l-19 576h385l-16-576H70z"/><glyph glyph-name="parenleft" unicode="(" horiz-adv-x="780" d="M41 90v1098q0 248 166 377t457 129v-359q-88 0-125-37t-37-110V90q0-74 37-110t125-37v-359q-291 0-457 129T41 90z"/><glyph glyph-name="parenright" unicode=")" horiz-adv-x="780" d="M739 1188V90q0-248-166-377T117-416v359q88 0 125 37t37 110v1098q0 74-37 110t-125 37v359q291 0 457-129t165-377z"/><glyph glyph-name="asterisk" unicode="*" horiz-adv-x="917" d="M307 1434h311v-146l136 76 135-246-150-74 152-69-139-250-134 74V655H307v144l-135-74L29 973l161 74-163 71 143 244 137-74v146z"/><glyph glyph-name="plus" unicode="+" horiz-adv-x="1099" d="M20 469v332h330v352h400V801h329V469H750V115H350v354H20z"/><glyph glyph-name="comma" unicode="," horiz-adv-x="550" d="M18 223q0 88 72 157t184 69 186-70q73-70 72-189 0-166-84-320T213-381L31-176q109 66 155 162Q18 50 18 223z"/><glyph glyph-name="hyphen" unicode="-" horiz-adv-x="829" d="M70 459v352h688V459H70z"/><glyph glyph-name="period" unicode="." horiz-adv-x="550" d="M275-27Q162-27 90 42T18 211t72 169 184 69 186-69q72-69 72-169T460 42 275-27z"/><glyph glyph-name="slash" unicode="/" horiz-adv-x="997" d="M-12-221l614 1757h410L397-221H-12z"/><glyph glyph-name="zero" unicode="0" horiz-adv-x="1232" d="M616 383q70 0 70 336t-70 336-70-336 70-336zm0-410q-291-1-431 185T45 717q0 743 571 743t572-743q0-373-140-559T616-27z"/><glyph glyph-name="one" unicode="1" horiz-adv-x="827" d="M766 1434V0H266v989l-123-33-102 375 332 103h393z"/><glyph glyph-name="two" unicode="2" horiz-adv-x="1187" d="M55 0v180q0 117 60 221 59 105 143 181t168 144q201 162 203 265 1 31-17 47t-45 17q-66 0-94-123l-438 90q39 186 172 312t379 126 400-120 153-336q0-86-35-166t-87-136Q913 591 790 511q-123-81-122-124h483V0H55z"/><glyph glyph-name="three" unicode="3" horiz-adv-x="1159" d="M1069 1434v-355L866 895q121-43 194-147t73-273q0-223-158-362T573-27Q228-27 78 247q-35 65-51 136l430 94q7-43 33-69t63-27 63 23 27 64q0 40-32 67t-83 26H315v281l238 205H90v387h979z"/><glyph glyph-name="four" unicode="4" horiz-adv-x="1280" d="M618 664v268L461 664h157zM23 291v295l532 848h559V664h141V291h-141V0H618v291H23z"/><glyph glyph-name="five" unicode="5" horiz-adv-x="1165" d="M553 385q35 0 63 25 28 26 27 72 0 46-27 75-26 29-76 29t-73-56L57 588l33 846h965v-387H516l-4-113q55 20 133 20 209 0 355-131t146-344-162-359Q821-26 580-27q-130 0-236 39Q164 78 71 244q-38 66-55 135l443 98q10-92 94-92z"/><glyph glyph-name="six" unicode="6" horiz-adv-x="1204" d="M705 1460q236 0 399-102L940 995q-102 57-179 57t-119-39q-42-40-54-102 63 39 166 39 178 0 296-114t118-340q0-227-155-375Q858-26 614-27 34-27 35 639q0 259 82 450 47 111 120 191t193 130 275 50zM623 377q31 0 49 32 18 31 18 81t-23 88q-24 36-62 36t-64-20q-6-217 82-217z"/><glyph glyph-name="seven" unicode="7" horiz-adv-x="1118" d="M14 1434h1090v-285L672 0H139l408 1053H14v381z"/><glyph glyph-name="eight" unicode="8" horiz-adv-x="1208" d="M603 575q-39-1-61-35t-22-82 23-79 61-31 61 31q21 31 21 79t-21 83q-22 34-62 34zm1 515q-33 0-50-28t-17-69q1-94 67-94 66-1 66 95t-66 96zm0-1117q-266 0-419 130Q32 234 32 442t142 322Q61 866 61 1039q-1 173 145 297t398 124 397-124 145-297-112-275q142-114 142-322t-153-338T604-27z"/><glyph glyph-name="nine" unicode="9" horiz-adv-x="1204" d="M498-27Q262-27 98 76l164 362q102-57 180-57t118 40q42 40 54 101-63-39-165-39-178 0-296 114T35 938t154 375q155 147 399 147 580 0 579-665 0-260-82-450-47-111-119-191T772 24Q652-26 498-27zm82 1084q-32 0-50-32t-18-82 24-87 62-37 64 21q6 217-82 217z"/><glyph glyph-name="colon" unicode=":" horiz-adv-x="546" d="M273 618q-113 0-185 69T16 856t72 169 184 69 186-69q72-69 72-169t-72-169-185-69zm2-645Q162-27 90 42T18 211t72 169 184 69 186-69q72-69 72-169T460 42 275-27z"/><glyph glyph-name="semicolon" unicode=";" horiz-adv-x="546" d="M18 223q0 88 72 157t184 69 186-70q73-70 72-189 0-166-84-320T213-381L31-176q109 66 155 162Q18 50 18 223zm255 395q-113 0-185 69T16 856t72 169 184 69 186-69q72-69 72-169t-72-169-185-69z"/><glyph glyph-name="less" unicode="&lt;" horiz-adv-x="1089" d="M72 498v274l944 418V819L543 637l473-182V82z"/><glyph glyph-name="equal" unicode="=" horiz-adv-x="1099" d="M20 254v330h1059V254H20zm0 414v329h1059V668H20z"/><glyph glyph-name="greater" unicode="&gt;" horiz-adv-x="1089" d="M1016 772V498L72 82v373l473 182L72 819v371z"/><glyph glyph-name="question" unicode="?" horiz-adv-x="1036" d="M474-27q-112 0-184 69t-73 169q0 100 72 169 73 69 185 69t184-69 73-169q0-100-73-169-72-69-184-69zM250 477v92q0 128 104 239 43 44 87 82 106 92 106 138 0 64-64 66-37 0-65-31t-41-80L14 1141q117 319 498 319 221 0 365-113 143-114 143-298 0-140-113-248-47-45-93-85-112-97-112-171v-68H250z"/><glyph glyph-name="at" unicode="@" horiz-adv-x="1916" d="M864 528q0-51 24-85 24-33 58-33t58 36q23 36 22 82 0 45-22 82-23 37-58 37-34 0-58-34t-24-85zm15-405q-176 1-284 115T487 529q1 177 97 292t256 115q119 0 180-62v50h348V475q0-84 62-84 42-1 72 57t30 175q0 225-157 360t-411 135-417-166Q383 786 383 534t168-408Q719-29 975-29t434 86l96-233q-190-121-518-121-422 0-677 229T55 534t259 612q258 238 654 238t644-216 248-533q0-227-127-369t-336-141q-74 0-141 33t-103 84q-33-47-109-83t-165-36z"/><glyph glyph-name="A" unicode="A" horiz-adv-x="1523" d="M829 584l-79 295-82-295h161zm89-365H582L518 0H10l496 1434h512L1513 0H981z"/><glyph glyph-name="B" unicode="B" horiz-adv-x="1273" d="M561 385h90q41 0 69 28 28 29 28 69t-28 68-69 28h-90V385zm0 506h90q39-1 61 23t21 57q1 33-21 57t-61 23h-90V891zM61 0v1434h621q244 0 387-111t143-292-147-281q82-45 129-128t47-173q0-213-143-331T715 0H61z"/><glyph glyph-name="C" unicode="C" horiz-adv-x="1312" d="M16 710q0 324 214 537t558 213q279 0 482-141l-156-410q-115 111-254 111t-220-84-81-219 82-219q83-84 221-84t262 112l154-411Q1077-26 788-27q-338 0-555 207Q16 386 16 710z"/><glyph glyph-name="D" unicode="D" horiz-adv-x="1390" d="M565 1024V410h31q116 0 182 78t66 230q0 154-66 230t-182 76h-31zM61 0v1434h512q361 0 581-192t220-522q0-332-219-526T573 0H61z"/><glyph glyph-name="E" unicode="E" horiz-adv-x="1017" d="M61 0v1434h895v-404H580V911h335V532H580V403h376V0H61z"/><glyph glyph-name="F" unicode="F" horiz-adv-x="987" d="M61 0v1434h889v-404H580V864h335V481H580V0H61z"/><glyph glyph-name="G" unicode="G" horiz-adv-x="1529" d="M793-27q-354 0-566 210Q16 394 16 714t215 533 557 213q385 0 611-233l-289-312q-119 105-254 105t-216-84-81-221 79-223 201-86 185 38v56H862v346h627V209Q1219-27 793-27z"/><glyph glyph-name="H" unicode="H" horiz-adv-x="1466" d="M61 0v1434h521V918h303v516h520V0H885v514H582V0H61z"/><glyph glyph-name="I" unicode="I" horiz-adv-x="643" d="M61 0v1434h521V0H61z"/><glyph glyph-name="J" unicode="J" horiz-adv-x="858" d="M276 479v955h521V399q0-412-484-411-145 0-290 37l51 391q57-14 110-15 92 0 92 78z"/><glyph glyph-name="K" unicode="K" horiz-adv-x="1431" d="M61 0v1434h521V913l245 521h568l-355-684L1409 0H831L582 590V0H61z"/><glyph glyph-name="L" unicode="L" horiz-adv-x="1001" d="M61 0v1434h521V403h393V0H61z"/><glyph glyph-name="M" unicode="M" horiz-adv-x="1875" d="M1815 1434V0h-506v690l-142-581H709L567 690V0H61v1434h652l225-816 225 816h652z"/><glyph glyph-name="N" unicode="N" horiz-adv-x="1474" d="M61 0v1434h527l311-674v674h514V0H887L575 674V0H61z"/><glyph glyph-name="O" unicode="O" horiz-adv-x="1617" d="M808 1032q-118 0-184-87t-65-228q0-141 66-229 65-88 183-87 118 0 184 87 66 86 67 228-1 142-67 229t-184 87zm1-1059q-360 0-577 212Q16 396 16 716t217 532 575 212 576-212 218-532-216-531Q1170-27 809-27z"/><glyph glyph-name="P" unicode="P" horiz-adv-x="1206" d="M561 827h47q45 0 77 30t32 78-30 79-75 30h-51V827zM61 0v1434h603q244 0 386-136t142-352q0-217-144-356T670 451H561V0H61z"/><glyph glyph-name="Q" unicode="Q" horiz-adv-x="1624" d="M808 1032q-118 0-184-87t-65-228q0-141 66-229 65-88 183-87 118 0 184 87 66 86 67 228-1 142-67 229t-184 87zm1-1059q-360 0-577 212Q16 396 16 716t217 532 575 212 576-212q217-212 218-529 0-197-84-354l124-105-288-330-150 129q-176-86-395-86z"/><glyph glyph-name="R" unicode="R" horiz-adv-x="1294" d="M565 844h62q47 0 75 30t27 70q0 39-28 70t-74 30h-62V844zM61 0v1434h637q246 0 389-132t144-333q0-119-65-216t-162-153L1331 0H768L565 463V0H61z"/><glyph glyph-name="S" unicode="S" horiz-adv-x="1181" d="M584 395q41 0 41 33 0 57-149 117T210 695q-62 48-104 128-41 80-40 181 0 208 148 332t380 124 377-110q145-111 182-228L788 913q-27 53-69 93-43 38-87 38t-44-36 57-71q57-36 140-74t166-89 141-138 57-200q0-213-152-338T590-27q-121 0-223 37Q190 74 87 224q-42 60-64 122l370 201q90-152 191-152z"/><glyph glyph-name="T" unicode="T" horiz-adv-x="1142" d="M311 0v1030H31v404h1083v-404H831V0H311z"/><glyph glyph-name="U" unicode="U" horiz-adv-x="1445" d="M722-27q-314 0-488 162Q61 297 61 563v871h521V551q0-72 38-111t102-39 104 39q38 39 38 111v883h520V563q0-266-174-428T722-27z"/><glyph glyph-name="V" unicode="V" horiz-adv-x="1593" d="M1059 0H535L14 1434h564l227-840 227 840h547z"/><glyph glyph-name="W" unicode="W" horiz-adv-x="2166" d="M1257 0l-174 752L909 0H387L14 1434h555l133-789 177 789h409l176-789 133 789h555L1780 0h-523z"/><glyph glyph-name="X" unicode="X" horiz-adv-x="1523" d="M946 0L754 387 569 0H12l453 719-453 715h600l158-351 158 351h583l-452-715L1511 0H946z"/><glyph glyph-name="Y" unicode="Y" horiz-adv-x="1449" d="M985 0H465v612L16 1434h576l143-408 144 408h555L985 612V0z"/><glyph glyph-name="Z" unicode="Z" horiz-adv-x="1277" d="M27 0v268l538 766H41v400h1204v-267L700 403h551V0H27z"/><glyph glyph-name="bracketleft" unicode="[" horiz-adv-x="700" d="M41-416v2110h623v-359H502V-57h162v-359H41z"/><glyph glyph-name="backslash" unicode="\" horiz-adv-x="997" d="M397 1536l615-1757H602L-12 1536h409z"/><glyph glyph-name="bracketright" unicode="]" horiz-adv-x="700" d="M659 1694V-416H37v359h162v1392H37v359h622z"/><glyph glyph-name="asciicircum" unicode="^" horiz-adv-x="1230" d="M756 643L614 963 473 643H41l385 791h377l385-791H756z"/><glyph glyph-name="underscore" unicode="_" horiz-adv-x="1296" d="M12-45h1272v-324H12v324z"/><glyph glyph-name="grave" unicode="`" horiz-adv-x="999" d="M670 1493l143-319H430l-244 319h484z"/><glyph glyph-name="a" unicode="a" horiz-adv-x="1138" d="M475 360q0-31 27-49 28-18 64-18t63 18 26 49q0 31-26 50-27 18-64 18t-63-18-27-50zM27 320q0 168 119 258 120 90 303 90 104 0 188-37v37q0 34-37 56t-104 21q-135 0-271-67L74 977q230 141 504 141t395-130 121-343V0H694l-20 72Q572-26 408-26T135 62Q27 152 27 320z"/><glyph glyph-name="b" unicode="b" horiz-adv-x="1310" d="M506 550q0-90 40-148t110-58 111 54q40 54 40 146t-41 148q-41 58-110 58-70 0-110-54t-40-146zM51 0v1479h467v-445q37 33 107 58t141 24q240 0 374-157t134-413-134-415Q1006-27 766-27q-164 0-268 90V0H51z"/><glyph glyph-name="c" unicode="c" horiz-adv-x="1021" d="M27 546q0 248 176 410t442 162q199 0 346-100L887 668q-87 76-185 76t-154-58q-56-57-56-141 0-85 57-141t163-56 179 80L997 74Q850-26 655-27q-268 0-448 162T27 546z"/><glyph glyph-name="d" unicode="d" horiz-adv-x="1300" d="M494 544q0-92 40-146t110-54 111 58q40 58 40 148 0 91-41 145-41 55-110 55-70 0-110-58t-40-148zm755 935V0H803v63Q699-27 535-27q-240 0-374 158T27 546q0 258 134 414t374 156q71 0 141-24t106-58v445h467z"/><glyph glyph-name="e" unicode="e" horiz-adv-x="1214" d="M508 672h223q-4 45-35 76-31 30-77 30-47 0-77-30t-34-76zM637-27q-281 0-445 169T29 553q1 241 163 403t425 162 419-154 156-409l-6-117H492q12-51 60-83t112-31q117 0 186 77l315-172Q966-27 637-27z"/><glyph glyph-name="f" unicode="f" horiz-adv-x="770" d="M127 0v750H18v340h111q0 201 140 304t343 103q96 0 154-14v-344q-49 8-87 8-38 1-64-17t-25-40h155V750H594V0H127z"/><glyph glyph-name="g" unicode="g" horiz-adv-x="1302" d="M795 554q0 89-40 142-40 54-109 54-68 0-110-56t-42-146q0-89 41-142 41-54 111-54t110 56q39 56 39 146zM604-35q74 0 127 25t53 71v27q-96-74-247-74-221 0-365 146T27 552q0 248 144 406t366 158q168 0 268-86v60h446V152q0-274-173-410T637-393q-119-1-251 31t-218 75L293 31q147-66 311-66z"/><glyph glyph-name="h" unicode="h" horiz-adv-x="1196" d="M776 1116q178 0 274-112 95-113 95-308V0H678v643q0 96-80 96-36-1-58-29t-22-67V0H51v1479h467V997q38 45 108 82t150 37z"/><glyph glyph-name="i" unicode="i" d="M285 1116q-115 0-185 66t-70 165 70 165 185 65q115 0 185-66 70-67 69-165 1-98-69-164t-185-66zM51 0v1090h467V0H51z"/><glyph glyph-name="j" unicode="j" d="M285 1116q-115 0-185 66t-70 165 70 165 185 65q115 0 185-66 70-67 69-165 1-98-69-164t-185-66zM51 27v1063h467V14q0-408-487-407-74 0-129 16v328q31-4 61-4 88 0 88 80z"/><glyph glyph-name="k" unicode="k" horiz-adv-x="1245" d="M51 0v1479h467V717l178 373h512L934 590 1227 0H692L518 420V0H51z"/><glyph glyph-name="l" unicode="l" d="M51 0v1479h467V0H51z"/><glyph glyph-name="m" unicode="m" horiz-adv-x="1759" d="M1708 696V0h-467v666q0 74-65 73-28 0-46-19t-18-54V0H651v666q0 35-19 54t-47 19-47-20-20-53V0H51v1090h447v-84q46 46 116 78t144 32q170 0 258-110 121 110 299 110 177 0 285-120t108-300z"/><glyph glyph-name="n" unicode="n" horiz-adv-x="1187" d="M772 1116q170 0 267-112t98-308V0H670v643q0 96-76 96-37 1-56-27t-20-69V0H51v1090h447v-91q104 117 274 117z"/><glyph glyph-name="o" unicode="o" horiz-adv-x="1286" d="M498 547q0-93 39-149t107-56 106 56 38 148-38 148q-39 56-107 56-69 0-107-56t-38-147zm762 0q0-248-172-411T643-27q-272 0-444 163T27 547q0 247 172 409t444 162q273 0 445-162t172-409z"/><glyph glyph-name="p" unicode="p" horiz-adv-x="1300" d="M656 745q-70 0-110-57t-40-148q0-92 41-146t109-54 110 57q41 57 41 149t-40 145q-40 54-111 54zM51-375v1465h447v-64q104 90 268 90 240 0 374-158t134-414-134-414Q1006-27 766-27q-72 0-142 25T518 55v-430H51z"/><glyph glyph-name="q" unicode="q" horiz-adv-x="1300" d="M644 745q-70 0-110-54t-40-145q0-90 41-148t109-58 110 54q41 54 41 146 0 91-40 148t-111 57zm605 345V-375H782V55Q746 22 676-2T535-27q-240 0-374 157T27 544q0 256 134 414t374 158q164 0 268-90v64h446z"/><glyph glyph-name="r" unicode="r" horiz-adv-x="817" d="M778 1116V694q-40 14-100 14t-110-54-50-146V0H51v1090h457V971q34 55 108 100t162 45z"/><glyph glyph-name="s" unicode="s" horiz-adv-x="1003" d="M483 319q47 0 47 23 0 14-14 22t-63 22q-196 60-255 110-32 28-68 64-67 68-68 213-2 145 132 245t334 100q260 0 437-172L743 696q-92 82-190 82-45 0-45-26 0-16 20-26t89-32q69-21 117-40 161-64 213-161 34-62 34-145 0-180-131-277T504-27q-143-1-269 55T29 160l186 264q53-39 137-72t131-33z"/><glyph glyph-name="t" unicode="t" horiz-adv-x="825" d="M156 1090v227h454v-227h170V750H610V428q0-72 103-72l73 6V4q-74-20-180-20-463 0-463 432v334H45v340h111z"/><glyph glyph-name="u" unicode="u" horiz-adv-x="1187" d="M438-27Q252-28 152 78T51 377v713h467V446q0-96 76-96 37 0 56 28t20 68v644h467V0H690v84Q654 41 584 7T438-27z"/><glyph glyph-name="v" unicode="v" horiz-adv-x="1275" d="M901 0H381L14 1090h500l127-553 127 553h487z"/><glyph glyph-name="w" unicode="w" horiz-adv-x="1789" d="M983 0l-90 401L809 0H305L16 1090h508l70-537 94 537h414l94-541 72 541h508L1485 0H983z"/><glyph glyph-name="x" unicode="x" horiz-adv-x="1228" d="M741 0L614 256 487 0H-4l358 553L0 1090h512l102-244 103 244h512L874 553 1233 0H741z"/><glyph glyph-name="y" unicode="y" horiz-adv-x="1277" d="M715-367H274L422 55 14 1090h500l127-515 137 515h486z"/><glyph glyph-name="z" unicode="z" horiz-adv-x="999" d="M29 0v240l348 499H35v351h923V850L604 352h357V0H29z"/><glyph glyph-name="braceleft" unicode="{" horiz-adv-x="870" d="M41 442v396q72 0 110 32t37 134v184q0 246 176 376t470 130v-359q-182 0-183-147V911q0-102-57-174t-135-98q78-27 135-99t57-171V88q0-145 183-145v-359q-293 0-469 130T188 90v186q0 100-37 134-38 32-110 32z"/><glyph glyph-name="bar" unicode="|" horiz-adv-x="645" d="M98-537v2302h447V-537H98z"/><glyph glyph-name="braceright" unicode="}" horiz-adv-x="870" d="M829 838V442q-71 0-109-32t-38-134V90q0-246-176-376T37-416v359q182 0 182 145v281q0 100 57 172t136 98q-78 27-136 98-57 72-57 174v277q0 147-182 147v359q293 0 469-130t176-376v-184q0-100 38-133t109-33z"/><glyph glyph-name="asciitilde" unicode="~" horiz-adv-x="1159" d="M471 467q-68 0-70-74H25q0 207 99 329t271 122q61 0 157-36t131-36q73 0 75 74h377q1-207-99-329T764 395q-60 0-156 36t-137 36z"/><glyph glyph-name="exclamdown" unicode="¡" horiz-adv-x="671" d="M84-305l35 956h434l35-956H84zm250 985q-112 0-184 69T78 918t73 168 185 69q112 0 184-69 72-68 72-168t-73-169-185-69z"/><glyph glyph-name="cent" unicode="¢" horiz-adv-x="1021" d="M502 0v129q-211 45-343 197T27 690t131 364q131 153 344 193v187h303v-193q109-29 186-80L877 807q-83 80-179 80-96 1-151-57t-55-142 56-141 160-57 175 79l114-354q-84-57-192-84V0H502z"/><glyph glyph-name="sterling" unicode="£" horiz-adv-x="1230" d="M49 555v315h94v134q1 204 141 330t386 126q112 0 202-35t146-91q104-105 135-214L758 979q-27 90-84 90-27 0-44-20t-18-56V870h291V555H612V371h578V0H41v371h102v184H49z"/><glyph glyph-name="yen" unicode="¥" horiz-adv-x="1449" d="M985 0H465v276H201v275h264v70H201v274h110L16 1434h576l143-408 144 408h555l-295-539h112V621H985v-70h266V276H985V0z"/><glyph glyph-name="section" unicode="§" horiz-adv-x="1130" d="M41 537q0 166 158 256Q54 914 54 1094t134 294q135 114 363 113 119 0 221-40 163-64 268-217 39-56 56-105L715 975q-61 143-140 143-45 0-45-46t80-91l236-141q242-145 241-351 0-166-157-256 145-121 145-301T940-361Q805-475 578-475q-120 0-222 40-164 64-268 217-39 56-55 105L414 51Q475-92 553-92q45 0 45 46t-80 91L283 186Q41 332 41 537zm434 12q0-29 27-47l121-60q35 6 35 35t-27 47l-121 60q-35-6-35-35z"/><glyph glyph-name="dieresis" unicode="¨" horiz-adv-x="999" d="M532 1339q0 76 52 126 52 51 139 51 88 0 139-50t51-127q0-76-50-125t-140-49q-91 0-141 49t-50 125zm-448 0q0 76 51 126 51 51 139 51t140-50 51-127q0-76-50-125-51-49-141-49t-140 49-50 125z"/><glyph glyph-name="copyright" unicode="©" horiz-adv-x="1628" d="M430 721q0 169 111 281t278 112q201 0 316-168L922 791q-36 61-88 61t-80-37-29-96q0-59 29-95 30-36 80-36t88 61l213-157q-117-166-316-166-169 0-279 114T430 721zm-117-1q-1-222 137-366t361-145q223 0 363 143 139 144 139 366t-138 365q-137 143-361 143t-362-142-139-364zm1268-3q0-317-219-531T812-29q-331 1-549 215T45 718t218 532 550 214 550-215 218-532z"/><glyph glyph-name="ordfeminine" unicode="ª" horiz-adv-x="864" d="M436 950q-63 0-63-47t62-47 63 47q0 23-18 35t-44 12zM317 614q-121 0-201 67T35 872q0 124 89 188t226 64q74 0 137-26v24q0 62-100 62t-199-51L70 1354q156 110 368 110t300-96q89-96 89-254V635H528l-12 53q-78-74-199-74z"/><glyph glyph-name="guillemotleft" unicode="«" horiz-adv-x="1210" d="M754 219L526 606l228 387h387L915 606l226-387H754zm-457 0L70 606l227 387h387L459 606l225-387H297z"/><glyph glyph-name="registered" unicode="®" horiz-adv-x="944" d="M160 1090q0-134 85-222t226-88 225 87 84 225-85 221q-85 84-226 84t-225-86-84-221zm-133-1q0 185 124 308 125 123 321 123t320-122 124-306-124-309Q668 659 469 659T148 781Q27 904 27 1089zm450 111h-47v-74h47q37 0 37 37t-37 37zm-47-184V874H287v443h217q76 0 117-41t41-107q0-98-70-127l82-168H524l-65 142h-29z"/><glyph glyph-name="macron" unicode="¯" horiz-adv-x="919" d="M123 1186v299h674v-299H123z"/><glyph glyph-name="degree" unicode="°" horiz-adv-x="833" d="M358 1083q0-78 58-77 57 0 57 78 1 78-57 77-58 0-58-78zm445 0q0-152-109-256-108-104-278-104T137 827 29 1083q0 152 108 256 109 105 279 105t278-104 109-257z"/><glyph glyph-name="twosuperior" unicode="²" horiz-adv-x="788" d="M41 614v103q0 61 37 121t90 102q53 43 107 81 130 91 129 131t-39 40q-47 0-70-82l-266 76q27 98 115 181 90 83 248 83t258-69 102-195q0-70-43-129t-93-91q-136-86-137-114h281V614H41z"/><glyph glyph-name="threesuperior" unicode="³" horiz-adv-x="778" d="M344 956H223v150l101 90H70v238h647v-191l-146-127q82-25 129-88t48-143q0-141-100-214t-264-73q-163 0-251 80T29 860l247 47q18-51 76-51 25 0 41 14 17 14 17 34t-16 36-50 16z"/><glyph glyph-name="acute" unicode="´" horiz-adv-x="999" d="M186 1174l144 319h483l-244-319H186z"/><glyph glyph-name="paragraph" unicode="¶" horiz-adv-x="1216" d="M807-92v1526h373V-92H807zm-397 0v735q-168 12-273 123Q33 878 33 1044t121 278 307 112h319V-92H410z"/><glyph glyph-name="periodcentered" unicode="·" horiz-adv-x="548" d="M275 403q-113 0-185 69T18 641t72 169 184 69 186-69q72-69 72-169t-72-169-185-69z"/><glyph glyph-name="cedilla" unicode="¸" horiz-adv-x="919" d="M711-254q0-110-81-174-82-64-200-64t-223 43l51 197q35-14 81-14t46 39-61 39l-60-11 41 262h268L551-68q72-14 116-64t44-122z"/><glyph glyph-name="onesuperior" unicode="¹" horiz-adv-x="657" d="M569 1434V614H215v506l-78-24-76 268 222 70h286z"/><glyph glyph-name="ordmasculine" unicode="º" horiz-adv-x="997" d="M383 1039q0-67 32-109t83-43q51 0 84 43 32 44 32 110t-32 109q-33 43-84 43t-83-43-32-110zm115 425q203 0 334-121t131-304q1-183-131-304T498 614 166 735Q35 856 35 1039t130 304 333 121z"/><glyph glyph-name="guillemotright" unicode="»" horiz-adv-x="1210" d="M684 606L457 219H70l225 387L70 993h387zm457 0L913 219H526l226 387-226 387h387z"/><glyph glyph-name="onequarter" unicode="¼" horiz-adv-x="1816" d="M539 1434V614H184v506l-78-24-75 268 221 70h287zM688-84H283l753 1602h408zm662 449v159l-115-159h115zm0-365v127H977v221l344 471h373V365h88V127h-88V0h-344z"/><glyph glyph-name="onehalf" unicode="½" horiz-adv-x="1845" d="M1063 0v102q0 60 37 120t91 104 107 81q53 38 91 72 37 35 36 62 0 37-39 37-47 0-69-82l-266 75q27 98 115 182 90 83 248 83t258-69 102-196q0-70-43-129t-93-91q-136-86-137-113h281V0h-719zM539 1434V614H184v506l-78-24-75 268 221 70h287zM668-84H262l754 1602h407z"/><glyph glyph-name="threequarters" unicode="¾" horiz-adv-x="1892" d="M766-84H360l754 1602h408zm661 449v159l-114-159h114zm0-365v127h-372v221l344 471h373V365h88V127h-88V0h-345zM344 956H223v150l101 90H70v238h647v-191l-146-127q82-25 129-88t48-143q0-141-100-214t-264-73q-163 0-251 80T29 860l247 47q18-51 76-51 25 0 41 14 17 14 17 34t-16 36-50 16z"/><glyph glyph-name="questiondown" unicode="¿" horiz-adv-x="1036" d="M817 922q0-100-72-169-73-69-185-69t-184 69-73 169q0 100 73 169 72 69 184 69t184-70q72-68 73-168zm-33-267v-92q0-133-105-238-44-44-87-82t-74-74-31-65q1-29 17-47t50-18 62 31 41 80L1020-8Q903-327 522-328q-221 0-364 114T14 84q0 136 112 248 46 45 93 85 113 96 113 171v67h452z"/><glyph glyph-name="Agrave" unicode="À" horiz-adv-x="1523" d="M856 1837l143-319H616l-243 319h483zM829 584l-79 295-82-295h161zm89-365H582L518 0H10l496 1434h512L1513 0H981z"/><glyph glyph-name="Aacute" unicode="Á" horiz-adv-x="1523" d="M516 1518l143 319h484l-244-319H516zm313-934l-79 295-82-295h161zm89-365H582L518 0H10l496 1434h512L1513 0H981z"/><glyph glyph-name="Acircumflex" unicode="Â" horiz-adv-x="1523" d="M811 1518l-49 79-49-79H322l217 319h446l217-319H811zm18-934l-79 295-82-295h161zm89-365H582L518 0H10l496 1434h512L1513 0H981z"/><glyph glyph-name="Atilde" unicode="Ã" horiz-adv-x="1523" d="M918 1507q-53 0-128 30t-102 30q-53 0-53-62H326q0 162 72 256 73 94 208 94 53 1 128-29t102-30q53 0 53 62h309q0-162-72-256t-208-95zm-89-923l-79 295-82-295h161zm89-365H582L518 0H10l496 1434h512L1513 0H981z"/><glyph glyph-name="Adieresis" unicode="Ä" horiz-adv-x="1523" d="M797 1683q0 76 51 126 51 51 139 51t139-50q52-50 52-127t-50-125-141-48q-90 0-140 48-50 49-50 125zm-449 0q0 76 51 126 51 51 139 51t140-50q51-50 51-127t-50-125-140-48q-91 0-141 48-50 49-50 125zM829 584l-79 295-82-295h161zm89-365H582L518 0H10l496 1434h512L1513 0H981z"/><glyph glyph-name="Aring" unicode="Å" horiz-adv-x="1523" d="M766 1798q-28 0-48-20t-20-50 20-50 48-21q29 0 48 20 20 21 20 51t-20 50-48 20zm-262-71q0 99 76 163t186 64 184-64q76-64 76-162t-76-162-186-64-184 62q-76 64-76 163zM829 584l-79 295-82-295h161zm89-365H582L518 0H10l496 1434h512L1513 0H981z"/><glyph glyph-name="AE" unicode="Æ" horiz-adv-x="1880" d="M924 584v321L768 584h156zm0-584v219H596L492 0H-27l783 1434h1063v-404h-377V911h336V532h-336V403h377V0H924z"/><glyph glyph-name="Ccedilla" unicode="Ç" horiz-adv-x="1312" d="M16 719q0 315 214 528t558 213q279 0 482-141l-156-410q-115 111-254 111t-220-84-81-219 82-219q83-84 221-84t262 112l154-411Q1090-18 825-27l-6-41q72-14 116-64t44-122q0-110-81-174-82-64-200-64t-223 43l51 197q35-14 81-14t46 39-61 39l-60-11L563 0Q312 61 164 254T16 719z"/><glyph glyph-name="Egrave" unicode="È" horiz-adv-x="1017" d="M623 1837l143-319H383l-244 319h484zM61 0v1434h895v-404H580V911h335V532H580V403h376V0H61z"/><glyph glyph-name="Eacute" unicode="É" horiz-adv-x="1017" d="M276 1487l144 319h483l-244-319H276zM61 0v1434h895v-404H580V911h335V532H580V403h376V0H61z"/><glyph glyph-name="Ecircumflex" unicode="Ê" horiz-adv-x="1017" d="M557 1518l-49 79-49-79H68l217 319h446l217-319H557zM61 0v1434h895v-404H580V911h335V532H580V403h376V0H61z"/><glyph glyph-name="Edieresis" unicode="Ë" horiz-adv-x="1017" d="M543 1683q0 76 51 126 51 51 139 51t139-50q52-50 52-127t-50-125-141-48q-90 0-140 48-50 49-50 125zm-449 0q0 76 51 126 51 51 139 51t140-50q51-50 51-127t-50-125-140-48q-91 0-141 48-50 49-50 125zM61 0v1434h895v-404H580V911h335V532H580V403h376V0H61z"/><glyph glyph-name="Igrave" unicode="Ì" horiz-adv-x="643" d="M444 1837l144-319H205l-244 319h483zM61 0v1434h521V0H61z"/><glyph glyph-name="Iacute" unicode="Í" horiz-adv-x="643" d="M84 1518l143 319h484l-244-319H84zM61 0v1434h521V0H61z"/><glyph glyph-name="Icircumflex" unicode="Î" horiz-adv-x="643" d="M371 1518l-49 79-50-79h-391l217 319h447l217-319H371zM61 0v1434h521V0H61z"/><glyph glyph-name="Idieresis" unicode="Ï" horiz-adv-x="643" d="M362 1683q0 76 52 126 52 51 139 51 88 0 139-50t51-127-50-125-140-48q-91 0-141 48-50 49-50 125zm-448 0q0 76 51 126 51 51 139 51t140-50 51-127q0-77-50-125-51-48-141-48t-140 48q-50 49-50 125zM61 0v1434h521V0H61z"/><glyph glyph-name="Eth" unicode="Ð" horiz-adv-x="1478" d="M653 1024V897h125V539H653V410h31q116 0 182 78t66 230q0 154-66 230t-182 76h-31zM61 539v358h89v537h512q362 0 581-192t219-522q0-332-219-526T662 0H150v539H61z"/><glyph glyph-name="Ntilde" unicode="Ñ" horiz-adv-x="1474" d="M924 1485q-53-1-128 29t-102 30q-53 0-53-61H332q0 162 72 256 73 94 208 94 53 0 128-30t102-29q53 0 53 61h309q0-162-72-256t-208-94zM61 0v1434h527l311-674v674h514V0H887L575 674V0H61z"/><glyph glyph-name="Ograve" unicode="Ò" horiz-adv-x="1617" d="M909 1837l144-319H670l-244 319h483zm-101-805q-118 0-184-87t-65-228q0-141 66-229 65-88 183-87 118 0 184 87 66 86 67 228-1 142-67 229t-184 87zm1-1059q-360 0-577 212Q16 396 16 716t217 532 575 212 576-212 218-532-216-531Q1170-27 809-27z"/><glyph glyph-name="Oacute" unicode="Ó" horiz-adv-x="1617" d="M598 1518l143 319h484l-244-319H598zm210-486q-118 0-184-87t-65-228q0-141 66-229 65-88 183-87 118 0 184 87 66 86 67 228-1 142-67 229t-184 87zm1-1059q-360 0-577 212Q16 396 16 716t217 532 575 212 576-212 218-532-216-531Q1170-27 809-27z"/><glyph glyph-name="Ocircumflex" unicode="Ô" horiz-adv-x="1617" d="M870 1518l-49 79-49-79H381l217 319h446l218-319H870zm-62-486q-118 0-184-87t-65-228q0-141 66-229 65-88 183-87 118 0 184 87 66 86 67 228-1 142-67 229t-184 87zm1-1059q-360 0-577 212Q16 396 16 716t217 532 575 212 576-212 218-532-216-531Q1170-27 809-27z"/><glyph glyph-name="Otilde" unicode="Õ" horiz-adv-x="1617" d="M963 1507q-53 0-128 30t-102 30q-53 0-53-62H371q0 162 72 256 73 94 208 94 53 1 128-29t102-30q53 0 53 62h309q-1-162-73-256t-207-95zm-155-475q-118 0-184-87t-65-228q0-141 66-229 65-88 183-87 118 0 184 87 66 86 67 228-1 142-67 229t-184 87zm1-1059q-360 0-577 212Q16 396 16 716t217 532 575 212 576-212 218-532-216-531Q1170-27 809-27z"/><glyph glyph-name="Odieresis" unicode="Ö" horiz-adv-x="1617" d="M844 1667q0 76 51 126t139 50 140-50 51-126q0-76-50-125-51-49-141-49t-140 49-50 125zm-449 0q0 76 51 126 52 50 140 50t139-50 51-126-50-125-140-49-141 49q-50 49-50 125zm413-635q-118 0-184-87t-65-228q0-141 66-229 65-88 183-87 118 0 184 87 66 86 67 228-1 142-67 229t-184 87zm1-1059q-360 0-577 212Q16 396 16 716t217 532 575 212 576-212 218-532-216-531Q1170-27 809-27z"/><glyph glyph-name="multiply" unicode="×" horiz-adv-x="1110" d="M555 889l270 278 258-252-278-280 278-281-258-252-270 279-270-279L27 354l278 281L27 915l258 252z"/><glyph glyph-name="Oslash" unicode="Ø" horiz-adv-x="1617" d="M809 1032q-119 0-185-87t-65-226q0-41 2-60l301 367q-24 6-53 6zm250-313q0 20-4 57L752 408q27-6 57-7 117-1 183 87t67 231zM809-27q-195 0-358 68L354-78 117 117l82 100Q16 418 16 727t217 521 576 212q190 0 352-67l99 118 239-194-84-100q187-203 187-511t-216-521Q1170-27 809-27z"/><glyph glyph-name="Ugrave" unicode="Ù" horiz-adv-x="1445" d="M823 1837l144-319H584l-244 319h483zM722-27q-314 0-488 162Q61 297 61 563v871h521V551q0-72 38-111t102-39 104 39q38 39 38 111v883h520V563q0-266-174-428T722-27z"/><glyph glyph-name="Uacute" unicode="Ú" horiz-adv-x="1445" d="M479 1518l144 319h483l-244-319H479zM722-27q-314 0-488 162Q61 297 61 563v871h521V551q0-72 38-111t102-39 104 39q38 39 38 111v883h520V563q0-266-174-428T722-27z"/><glyph glyph-name="Ucircumflex" unicode="Û" horiz-adv-x="1445" d="M774 1518l-49 79-49-79H285l217 319h446l217-319H774zM722-27q-314 0-488 162Q61 297 61 563v871h521V551q0-72 38-111t102-39 104 39q38 39 38 111v883h520V563q0-266-174-428T722-27z"/><glyph glyph-name="Udieresis" unicode="Ü" horiz-adv-x="1445" d="M766 1667q0 76 51 126t139 50 140-50 51-126q0-76-50-125-51-49-141-49t-140 49-50 125zm-449 0q-1 76 51 126t140 50 139-50 51-126-50-125-140-49-140 49-51 125zM722-27q-314 0-488 162Q61 297 61 563v871h521V551q0-72 38-111t102-39 104 39q38 39 38 111v883h520V563q0-266-174-428T722-27z"/><glyph glyph-name="Yacute" unicode="Ý" horiz-adv-x="1449" d="M502 1487l143 319h483l-243-319H502zM985 0H465v612L16 1434h576l143-408 144 408h555L985 612V0z"/><glyph glyph-name="Thorn" unicode="Þ" horiz-adv-x="1206" d="M584 625h34q37 1 65 29t28 71-28 71-60 27h-39V625zM61 0v1434h521v-222h82q244 0 386-135t142-352-144-354-378-138h-86V0H61z"/><glyph glyph-name="germandbls" unicode="ß" horiz-adv-x="1218" d="M567 682v326q92 0 92 75 0 29-19 47t-54 18-51-21q-16-22-17-48V0H51v1104q0 211 147 302t376 91 375-102q147-103 147-267T979 887q213-133 213-372t-156-377T567 0v342q72 0 114 49t42 119-43 121-113 51z"/><glyph glyph-name="agrave" unicode="à" horiz-adv-x="1138" d="M676 1493l143-319H436l-243 319h483zM475 360q0-31 27-49 28-18 64-18t63 18 26 49q0 31-26 50-27 18-64 18t-63-18-27-50zM27 320q0 168 119 258 120 90 303 90 104 0 188-37v37q0 34-37 56t-104 21q-135 0-271-67L74 977q230 141 504 141t395-130 121-343V0H694l-20 72Q572-26 408-26T135 62Q27 152 27 320z"/><glyph glyph-name="aacute" unicode="á" horiz-adv-x="1138" d="M338 1174l143 319h484l-244-319H338zm137-814q0-31 27-49 28-18 64-18t63 18 26 49q0 31-26 50-27 18-64 18t-63-18-27-50zM27 320q0 168 119 258 120 90 303 90 104 0 188-37v37q0 34-37 56t-104 21q-135 0-271-67L74 977q230 141 504 141t395-130 121-343V0H694l-20 72Q572-26 408-26T135 62Q27 152 27 320z"/><glyph glyph-name="acircumflex" unicode="â" horiz-adv-x="1138" d="M633 1174l-49 79-49-79H143l217 319h447l217-319H633zM475 360q0-31 27-49 28-18 64-18t63 18 26 49q0 31-26 50-27 18-64 18t-63-18-27-50zM27 320q0 168 119 258 120 90 303 90 104 0 188-37v37q0 34-37 56t-104 21q-135 0-271-67L74 977q230 141 504 141t395-130 121-343V0H694l-20 72Q572-26 408-26T135 62Q27 152 27 320z"/><glyph glyph-name="atilde" unicode="ã" horiz-adv-x="1138" d="M727 1163q-53 0-128 30t-101 30q-53 0-54-62H135q0 162 73 256t208 94q53 1 128-29t101-30q53 0 53 61h310q0-162-73-256t-208-94zM475 360q0-31 27-49 28-18 64-18t63 18 26 49q0 31-26 50-27 18-64 18t-63-18-27-50zM27 320q0 168 119 258 120 90 303 90 104 0 188-37v37q0 34-37 56t-104 21q-135 0-271-67L74 977q230 141 504 141t395-130 121-343V0H694l-20 72Q572-26 408-26T135 62Q27 152 27 320z"/><glyph glyph-name="adieresis" unicode="ä" horiz-adv-x="1138" d="M612 1339q0 76 52 126 52 51 139 51 88 0 139-50t51-127q0-76-50-125t-140-49q-91 0-141 49t-50 125zm-448 0q0 76 51 126 51 51 139 51t140-50 51-127q0-76-50-125-51-49-141-49t-140 49-50 125zm311-979q0-31 27-49 28-18 64-18t63 18 26 49q0 31-26 50-27 18-64 18t-63-18-27-50zM27 320q0 168 119 258 120 90 303 90 104 0 188-37v37q0 34-37 56t-104 21q-135 0-271-67L74 977q230 141 504 141t395-130 121-343V0H694l-20 72Q572-26 408-26T135 62Q27 152 27 320z"/><glyph glyph-name="aring" unicode="å" horiz-adv-x="1138" d="M596 1454q-28 0-48-20t-20-51q0-30 20-50t48-20q29 0 48 20 20 20 20 50 0 31-20 51t-48 20zm-262-71q0 99 76 163t186 64 184-64q76-64 76-162 0-100-76-163t-186-63-184 62q-76 64-76 163zM475 360q0-31 27-49 28-18 64-18t63 18 26 49q0 31-26 50-27 18-64 18t-63-18-27-50zM27 320q0 168 119 258 120 90 303 90 104 0 188-37v37q0 34-37 56t-104 21q-135 0-271-67L74 977q230 141 504 141t395-130 121-343V0H694l-20 72Q572-26 408-26T135 62Q27 152 27 320z"/><glyph glyph-name="ae" unicode="æ" horiz-adv-x="1818" d="M1225 774q-45 0-77-28t-36-70h223q-1 42-33 70t-77 28zM565 424q-35 0-61-18t-25-47q0-30 26-46 27-16 61-16t60 16 26 46-26 48q-26 17-61 17zM451 668q106 0 186-35v35q0 72-135 72t-271-68L74 971q94 67 229 107t275 40q211 0 329-98 125 98 322 98 259 0 413-156t154-407l-6-117h-694q12-51 60-82t112-30q119 0 186 75l315-172q-35-71-172-163t-337-93q-285 0-445 181Q686-26 428-27q-170 0-286 90Q26 152 26 320t121 258 304 90z"/><glyph glyph-name="ccedilla" unicode="ç" horiz-adv-x="1021" d="M27 545q0 249 176 411t442 162q199 0 346-100L877 664q-83 80-179 80t-151-58q-55-57-55-141 0-83 56-141t160-58 175 80L997 72Q870-14 696-27l-6-41q72-14 116-64t44-122q0-110-81-174t-199-64-224 43l51 197q35-14 81-14t46 39-61 39l-60-11L434 4Q250 60 138 206T27 545z"/><glyph glyph-name="egrave" unicode="è" horiz-adv-x="1214" d="M731 1493l143-319H492l-244 319h483zM508 672h223q-4 45-35 76-31 30-77 30-47 0-77-30t-34-76zM637-27q-281 0-445 169T29 553q1 241 163 403t425 162 419-154 156-409l-6-117H492q12-51 60-83t112-31q117 0 186 77l315-172Q966-27 637-27z"/><glyph glyph-name="eacute" unicode="é" horiz-adv-x="1214" d="M365 1174l143 319h483l-243-319H365zm143-502h223q-4 45-35 76-31 30-77 30-47 0-77-30t-34-76zM637-27q-281 0-445 169T29 553q1 241 163 403t425 162 419-154 156-409l-6-117H492q12-51 60-83t112-31q117 0 186 77l315-172Q966-27 637-27z"/><glyph glyph-name="ecircumflex" unicode="ê" horiz-adv-x="1214" d="M670 1174l-49 79-50-79H180l217 319h447l217-319H670zM508 672h223q-4 45-35 76-31 30-77 30-47 0-77-30t-34-76zM637-27q-281 0-445 169T29 553q1 241 163 403t425 162 419-154 156-409l-6-117H492q12-51 60-83t112-31q117 0 186 77l315-172Q966-27 637-27z"/><glyph glyph-name="edieresis" unicode="ë" horiz-adv-x="1214" d="M662 1339q0 76 51 126 51 51 139 51t139-50 51-127q0-76-50-125t-140-49-140 49-50 125zm-449 0q0 76 51 126 51 51 139 51 87 0 139-50t52-127q0-76-50-125t-140-49-141 49q-50 49-50 125zm295-667h223q-4 45-35 76-31 30-77 30-47 0-77-30t-34-76zM637-27q-281 0-445 169T29 553q1 241 163 403t425 162 419-154 156-409l-6-117H492q12-51 60-83t112-31q117 0 186 77l315-172Q966-27 637-27z"/><glyph glyph-name="igrave" unicode="ì" d="M381 1493l143-319H141l-243 319h483zM51 0v1090h467V0H51z"/><glyph glyph-name="iacute" unicode="í" d="M29 1174l143 319h483l-243-319H29zM51 0v1090h467V0H51z"/><glyph glyph-name="icircumflex" unicode="î" d="M334 1174l-49 79-49-79h-392l217 319h447l217-319H334zM51 0v1090h467V0H51z"/><glyph glyph-name="idieresis" unicode="ï" d="M319 1339q-1 76 51 126 52 51 140 51t139-50 51-127q0-76-50-125t-140-49-140 49-51 125zm-448 0q0 76 51 126 51 51 139 51 87 0 139-50t52-127q0-76-50-125t-140-49-141 49q-50 49-50 125zM51 0v1090h467V0H51z"/><glyph glyph-name="eth" unicode="ð" horiz-adv-x="1253" d="M494 512q0-76 32-124t98-48q64 0 97 48t33 124-33 123-97 47-98-47q-32-47-32-123zm-467 0q0 225 149 354 150 129 373 146-16 47-35 71L180 971l-35 248 136 45q-47 45-123 86l235 209q160-57 307-152l318 109 31-256-117-41q289-297 289-641 0-252-151-428T636-26 189 130Q27 287 27 512z"/><glyph glyph-name="ntilde" unicode="ñ" horiz-adv-x="1183" d="M766 1163q-53 0-128 30t-101 30q-53 0-54-62H174q0 162 73 256t208 94q53 1 128-29t101-30q53 0 53 61h310q0-162-73-256t-208-94zm2-47q170 0 267-112t98-308V0H666v643q0 96-76 96-37 1-56-27t-20-69V0H47v1090h447v-91q104 117 274 117z"/><glyph glyph-name="ograve" unicode="ò" horiz-adv-x="1302" d="M748 1493l143-319H508l-244 319h484zM498 547q0-93 39-149t107-56 106 56 38 148-38 148q-39 56-107 56-69 0-107-56t-38-147zm762 0q0-248-172-411T643-27q-272 0-444 163T27 547q0 247 172 409t444 162q273 0 445-162t172-409z"/><glyph glyph-name="oacute" unicode="ó" horiz-adv-x="1302" d="M393 1174l144 319h483l-244-319H393zm105-627q0-93 39-149t107-56 106 56 38 148-38 148q-39 56-107 56-69 0-107-56t-38-147zm762 0q0-248-172-411T643-27q-272 0-444 163T27 547q0 247 172 409t444 162q273 0 445-162t172-409z"/><glyph glyph-name="ocircumflex" unicode="ô" horiz-adv-x="1302" d="M707 1174l-50 79-49-79H217l217 319h447l217-319H707zM498 547q0-93 39-149t107-56 106 56 38 148-38 148q-39 56-107 56-69 0-107-56t-38-147zm762 0q0-248-172-411T643-27q-272 0-444 163T27 547q0 247 172 409t444 162q273 0 445-162t172-409z"/><glyph glyph-name="otilde" unicode="õ" horiz-adv-x="1302" d="M807 1163q-53 0-128 30t-101 30q-53 0-54-62H215q0 162 73 256t208 94q53 1 128-29t101-30q53 0 53 61h309q-1-162-73-256t-207-94zM498 547q0-93 39-149t107-56 106 56 38 148-38 148q-39 56-107 56-69 0-107-56t-38-147zm762 0q0-248-172-411T643-27q-272 0-444 163T27 547q0 247 172 409t444 162q273 0 445-162t172-409z"/><glyph glyph-name="odieresis" unicode="ö" horiz-adv-x="1302" d="M690 1339q0 76 51 126 51 51 139 51t140-50q51-50 51-127 0-76-50-125t-140-49-141 49q-50 49-50 125zm-448 0q0 76 51 126 51 51 139 51t139-50 51-127q0-76-50-125t-140-49-140 49-50 125zm256-792q0-93 39-149t107-56 106 56 38 148-38 148q-39 56-107 56-69 0-107-56t-38-147zm762 0q0-248-172-411T643-27q-272 0-444 163T27 547q0 247 172 409t444 162q273 0 445-162t172-409z"/><glyph glyph-name="divide" unicode="÷" horiz-adv-x="1099" d="M20 469v332h1059V469H20zm328-240q0 81 60 141t141 60q82 0 141-59 60-59 60-141T690 88q-60-59-141-59T408 88t-60 141zm0 811q0 82 60 142t141 59q82 0 141-59 60-60 60-142t-60-141-141-59-141 59-60 141z"/><glyph glyph-name="oslash" unicode="ø" horiz-adv-x="1302" d="M651 342q70 0 112 57t42 152L606 348q20-6 45-6zM498 547v-15l202 207q-25 10-49 11-69 0-111-56t-42-147zm778 0q0-248-176-411T651-27q-188 0-336 80l-96-98L70 98l86 86Q27 340 27 547q0 247 175 409t449 162q188 0 340-84l76 78 150-143-66-68q125-153 125-354z"/><glyph glyph-name="ugrave" unicode="ù" horiz-adv-x="1185" d="M713 1493l143-319H473l-244 319h484zM438-27Q252-28 152 78T51 377v713h467V446q0-96 76-96 37 0 56 28t20 68v644h467V0H690v84Q654 41 584 7T438-27z"/><glyph glyph-name="uacute" unicode="ú" horiz-adv-x="1185" d="M344 1174l143 319h484l-244-319H344zM438-27Q252-28 152 78T51 377v713h467V446q0-96 76-96 37 0 56 28t20 68v644h467V0H690v84Q654 41 584 7T438-27z"/><glyph glyph-name="ucircumflex" unicode="û" horiz-adv-x="1185" d="M645 1174l-49 79-49-79H156l217 319h446l217-319H645zM438-27Q252-28 152 78T51 377v713h467V446q0-96 76-96 37 0 56 28t20 68v644h467V0H690v84Q654 41 584 7T438-27z"/><glyph glyph-name="udieresis" unicode="ü" horiz-adv-x="1185" d="M629 1339q0 76 51 126 51 51 139 51t139-50q52-50 52-127 0-76-50-125t-141-49q-90 0-140 49t-50 125zm-449 0q0 76 51 126 51 51 139 51t140-50q51-50 51-127 0-76-50-125t-140-49-141 49q-50 49-50 125zM438-27Q252-28 152 78T51 377v713h467V446q0-96 76-96 37 0 56 28t20 68v644h467V0H690v84Q654 41 584 7T438-27z"/><glyph glyph-name="yacute" unicode="ý" horiz-adv-x="1277" d="M420 1174l143 319h484l-244-319H420zM715-367H274L422 55 14 1090h500l127-515 137 515h486z"/><glyph glyph-name="thorn" unicode="þ" horiz-adv-x="1300" d="M656 745q-70 0-110-57t-40-148q0-92 41-146t109-54 110 57q41 57 41 149t-40 145q-40 54-111 54zM51-375v1854h467v-437q102 74 248 74 240 0 374-158t134-414-134-414Q1006-27 766-27q-72 0-142 25T518 55v-430H51z"/><glyph glyph-name="ydieresis" unicode="ÿ" horiz-adv-x="1277" d="M680 1339q0 76 51 126 51 51 139 51t140-50 51-127q0-76-50-125-51-49-141-49t-140 49-50 125zm-449 0q-1 76 51 126 52 51 140 51t139-50 51-127q0-76-50-125t-140-49-140 49-51 125zM715-367H274L422 55 14 1090h500l127-515 137 515h486z"/><glyph glyph-name="Amacron" unicode="Ā" horiz-adv-x="1523" d="M426 1530v299h674v-299H426zm403-946l-79 295-82-295h161zm89-365H582L518 0H10l496 1434h512L1513 0H981z"/><glyph glyph-name="amacron" unicode="ā" horiz-adv-x="1138" d="M260 1186v299h674v-299H260zm215-826q0-31 27-49 28-18 64-18t63 18 26 49q0 31-26 50-27 18-64 18t-63-18-27-50zM27 320q0 168 119 258 120 90 303 90 104 0 188-37v37q0 34-37 56t-104 21q-135 0-271-67L74 977q230 141 504 141t395-130 121-343V0H694l-20 72Q572-26 408-26T135 62Q27 152 27 320z"/><glyph glyph-name="Abreve" unicode="Ă" horiz-adv-x="1523" d="M1153 1851q-1-158-105-253t-287-95-287 95q-103 95-103 253h346q0-92 44-92t44 92h348zM829 584l-79 295-82-295h161zm89-365H582L518 0H10l496 1434h512L1513 0H981z"/><glyph glyph-name="abreve" unicode="ă" horiz-adv-x="1138" d="M981 1507q-1-158-105-253t-287-95-287 95q-103 95-103 253h346q0-92 44-92t44 92h348zM475 360q0-31 27-49 28-18 64-18t63 18 26 49q0 31-26 50-27 18-64 18t-63-18-27-50zM27 320q0 168 119 258 120 90 303 90 104 0 188-37v37q0 34-37 56t-104 21q-135 0-271-67L74 977q230 141 504 141t395-130 121-343V0H694l-20 72Q572-26 408-26T135 62Q27 152 27 320z"/><glyph glyph-name="Aogonek" unicode="Ą" horiz-adv-x="1523" d="M829 584l-79 295-82-295h161zm213-820q0 80 62 146t139 90H981l-63 219H582L518 0H10l496 1434h512L1513 0q-33-12-59-38t-24-56q0-57 83-58v-266q-96-31-180-31-291 0-291 213z"/><glyph glyph-name="aogonek" unicode="ą" horiz-adv-x="1138" d="M475 360q0-31 27-49 28-18 64-18t63 18 26 49q0 31-26 50-27 18-64 18t-63-18-27-50zm148-596q0 80 65 146 66 66 141 90H694l-20 72Q572-26 408-26T135 62Q26 152 26 320t120 258 303 90q104 0 188-37v37q0 34-37 56t-104 21q-135 0-271-67L74 977q230 141 504 141t395-130 121-343V0q-33-12-59-38t-25-56q0-57 84-58v-266q-96-31-181-31-290 0-290 213z"/><glyph glyph-name="Cacute" unicode="Ć" horiz-adv-x="1312" d="M543 1518l143 319h483l-243-319H543zM16 710q0 324 214 537t558 213q279 0 482-141l-156-410q-115 111-254 111t-220-84-81-219 82-219q83-84 221-84t262 112l154-411Q1077-26 788-27q-338 0-555 207Q16 386 16 710z"/><glyph glyph-name="cacute" unicode="ć" horiz-adv-x="1021" d="M383 1174l143 319h484l-244-319H383zM27 546q0 248 176 410t442 162q199 0 346-100L887 668q-87 76-185 76t-154-58q-56-57-56-141 0-85 57-141t163-56 179 80L997 74Q850-26 655-27q-268 0-448 162T27 546z"/><glyph glyph-name="Ccircumflex" unicode="Ĉ" horiz-adv-x="1312" d="M872 1518l-49 79-49-79H383l217 319h447l217-319H872zM16 710q0 324 214 537t558 213q279 0 482-141l-156-410q-115 111-254 111t-220-84-81-219 82-219q83-84 221-84t262 112l154-411Q1077-26 788-27q-338 0-555 207Q16 386 16 710z"/><glyph glyph-name="ccircumflex" unicode="ĉ" horiz-adv-x="1021" d="M674 1174l-49 79-50-79H184l217 319h447l217-319H674zM27 546q0 248 176 410t442 162q199 0 346-100L887 668q-87 76-185 76t-154-58q-56-57-56-141 0-85 57-141t163-56 179 80L997 74Q850-26 655-27q-268 0-448 162T27 546z"/><glyph glyph-name="Cdotaccent" unicode="Ċ" horiz-adv-x="1312" d="M807 1505q-105 1-167 59t-62 151 61 149 167 57q106 0 168-56 62-55 62-149t-62-152-167-59zM16 710q0 324 214 537t558 213q279 0 482-141l-156-410q-115 111-254 111t-220-84-81-219 82-219q83-84 221-84t262 112l154-411Q1077-26 788-27q-338 0-555 207Q16 386 16 710z"/><glyph glyph-name="cdotaccent" unicode="ċ" horiz-adv-x="1021" d="M651 1161q-105 1-167 59t-62 151 61 149 167 57q106 0 168-56 62-55 62-149t-61-152q-62-58-168-59zM27 546q0 248 176 410t442 162q199 0 346-100L887 668q-87 76-185 76t-154-58q-56-57-56-141 0-85 57-141t163-56 179 80L997 74Q850-26 655-27q-268 0-448 162T27 546z"/><glyph glyph-name="Ccaron" unicode="Č" horiz-adv-x="1312" d="M817 1757l49 80h391l-217-319H594l-217 319h391zM16 710q0 324 214 537t558 213q279 0 482-141l-156-410q-115 111-254 111t-220-84-81-219 82-219q83-84 221-84t262 112l154-411Q1077-26 788-27q-338 0-555 207Q16 386 16 710z"/><glyph glyph-name="ccaron" unicode="č" horiz-adv-x="1021" d="M639 1413l49 80h391l-217-319H416l-217 319h391zM27 546q0 248 176 410t442 162q199 0 346-100L887 668q-87 76-185 76t-154-58q-56-57-56-141 0-85 57-141t163-56 179 80L997 74Q850-26 655-27q-268 0-448 162T27 546z"/><glyph glyph-name="Dcaron" unicode="Ď" horiz-adv-x="1390" d="M600 1757l49 80h391l-217-319H377l-217 319h391zm-35-733V410h31q116 0 182 78t66 230q0 154-66 230t-182 76h-31zM61 0v1434h512q361 0 581-192t220-522q0-332-219-526T573 0H61z"/><glyph glyph-name="dcaron" unicode="ď" horiz-adv-x="1302" d="M494 544q0-92 40-146t110-54 111 58q40 58 40 148 0 91-41 145-41 55-110 55-70 0-110-58t-40-148zm755 935V0H803v63Q699-27 535-27q-240 0-374 158T27 546q0 258 134 414t374 156q71 0 141-24t106-58v445h467zm64-357l14 357h320l-103-357h-231z"/><glyph glyph-name="Dcroat" unicode="Đ" horiz-adv-x="1478" d="M653 1024V897h125V539H653V410h31q116 0 182 78t66 230q0 154-66 230t-182 76h-31zM61 539v358h89v537h512q362 0 581-192t219-522q0-332-219-526T662 0H150v539H61z"/><glyph glyph-name="dcroat" unicode="đ" horiz-adv-x="1349" d="M494 544q0-92 40-146t110-54 111 58q40 58 40 148 0 91-41 145-41 55-110 55-70 0-110-58t-40-148zm755 935v-66h74v-252h-74V0H803v63Q699-27 535-27q-240 0-374 158T27 546q0 258 134 414t374 156q71 0 141-24t106-58v127H580v252h202v66h467z"/><glyph glyph-name="Emacron" unicode="Ē" horiz-adv-x="1017" d="M172 1530v299h674v-299H172zM61 0v1434h895v-404H580V911h335V532H580V403h376V0H61z"/><glyph glyph-name="emacron" unicode="ē" horiz-adv-x="1214" d="M285 1186v299h673v-299H285zm223-514h223q-4 45-35 76-31 30-77 30-47 0-77-30t-34-76zM637-27q-281 0-445 169T29 553q1 241 163 403t425 162 419-154 156-409l-6-117H492q12-51 60-83t112-31q117 0 186 77l315-172Q966-27 637-27z"/><glyph glyph-name="Ebreve" unicode="Ĕ" horiz-adv-x="1017" d="M899 1851q-1-158-105-253t-287-95-287 95q-103 95-103 253h346q0-92 44-92t44 92h348zM61 0v1434h895v-404H580V911h335V532H580V403h376V0H61z"/><glyph glyph-name="ebreve" unicode="ĕ" horiz-adv-x="1214" d="M1018 1507q0-158-104-253t-288-95q-183 0-287 95-103 95-103 253h346q0-92 44-92t44 92h348zM508 672h223q-4 45-35 76-31 30-77 30-47 0-77-30t-34-76zM637-27q-281 0-445 169T29 553q1 241 163 403t425 162 419-154 156-409l-6-117H492q12-51 60-83t112-31q117 0 186 77l315-172Q966-27 637-27z"/><glyph glyph-name="Edotaccent" unicode="Ė" horiz-adv-x="1017" d="M508 1505q-106 1-168 59t-61 151q0 93 61 149 62 56 168 57 106 0 168-56 62-55 61-149 1-94-61-152t-168-59zM61 0v1434h895v-404H580V911h335V532H580V403h376V0H61z"/><glyph glyph-name="edotaccent" unicode="ė" horiz-adv-x="1214" d="M635 1161q-105 1-167 59t-62 151 61 149 167 57q106 0 168-56 62-55 62-149t-62-152-167-59zM508 672h223q-4 45-35 76-31 30-77 30-47 0-77-30t-34-76zM637-27q-281 0-445 169T29 553q1 241 163 403t425 162 419-154 156-409l-6-117H492q12-51 60-83t112-31q117 0 186 77l315-172Q966-27 637-27z"/><glyph glyph-name="Eogonek" unicode="Ę" horiz-adv-x="1017" d="M61 0v1434h895v-404H580V911h335V532H580V403h376V0q-84-33-84-92t84-60v-266q-96-31-180-31-291 0-291 213 1 80 63 146T686 0H61z"/><glyph glyph-name="eogonek" unicode="ę" horiz-adv-x="1214" d="M620 774q-44 0-76-28t-36-70h223q-2 42-34 70t-77 28zM524-236q0 64 41 120t101 89h-11q-283 0-455 170T29 554q1 240 163 402t425 162 419-154 156-409l-6-117H492q12-51 60-82t112-30q119 0 186 75l315-172q-47-92-186-172-88-57-88-120 0-43 32-66t72-23v-266q-98-31-180-31-291 0-291 213z"/><glyph glyph-name="Ecaron" unicode="Ě" horiz-adv-x="1017" d="M508 1757l49 80h391l-217-319H285L68 1837h391zM61 0v1434h895v-404H580V911h335V532H580V403h376V0H61z"/><glyph glyph-name="ecaron" unicode="ě" horiz-adv-x="1214" d="M625 1413l49 80h391l-217-319H401l-217 319h391zM508 672h223q-4 45-35 76-31 30-77 30-47 0-77-30t-34-76zM637-27q-281 0-445 169T29 553q1 241 163 403t425 162 419-154 156-409l-6-117H492q12-51 60-83t112-31q117 0 186 77l315-172Q966-27 637-27z"/><glyph glyph-name="Gcircumflex" unicode="Ĝ" horiz-adv-x="1529" d="M874 1518l-49 79-49-79H385l217 319h447l217-319H874zM793-27q-354 0-566 210Q16 394 16 714t215 533 557 213q385 0 611-233l-289-312q-119 105-254 105t-216-84-81-221 79-223 201-86 185 38v56H862v346h627V209Q1219-27 793-27z"/><glyph glyph-name="gcircumflex" unicode="ĝ" horiz-adv-x="1302" d="M700 1174l-49 79-49-79H211l217 319h446l218-319H700zm95-620q0 89-40 142-40 54-109 54-68 0-110-56t-42-146q0-89 41-142 41-54 111-54t110 56q39 56 39 146zM604-35q74 0 127 25t53 71v27q-96-74-247-74-221 0-365 146T27 552q0 248 144 406t366 158q168 0 268-86v60h446V152q0-274-173-410T637-393q-119-1-251 31t-218 75L293 31q147-66 311-66z"/><glyph glyph-name="Gbreve" unicode="Ğ" horiz-adv-x="1529" d="M826 1503q-183 0-286 95t-104 253h346q0-92 44-92t44 92h349q0-158-105-253t-288-95zM793-27q-354 0-566 210Q16 394 16 714t215 533 557 213q385 0 611-233l-289-312q-119 105-254 105t-216-84-81-221 79-223 201-86 185 38v56H862v346h627V209Q1219-27 793-27z"/><glyph glyph-name="gbreve" unicode="ğ" horiz-adv-x="1302" d="M1042 1507q0-158-104-253t-288-95q-183 0-286 95t-104 253h346q0-92 44-92t44 92h348zM795 554q0 89-40 142-40 54-109 54-68 0-110-56t-42-146q0-89 41-142 41-54 111-54t110 56q39 56 39 146zM604-35q74 0 127 25t53 71v27q-96-74-247-74-221 0-365 146T27 552q0 248 144 406t366 158q168 0 268-86v60h446V152q0-274-173-410T637-393q-119-1-251 31t-218 75L293 31q147-66 311-66z"/><glyph glyph-name="Gdotaccent" unicode="Ġ" horiz-adv-x="1529" d="M805 1505q-105 1-167 59t-62 151 60 149q62 56 168 57 106 0 168-56 62-55 62-149t-62-152-167-59zM793-27q-354 0-566 210Q16 394 16 714t215 533 557 213q385 0 611-233l-289-312q-119 105-254 105t-216-84-81-221 79-223 201-86 185 38v56H862v346h627V209Q1219-27 793-27z"/><glyph glyph-name="gdotaccent" unicode="ġ" horiz-adv-x="1302" d="M651 1161q-105 1-167 59t-62 151 61 149 167 57q106 0 168-56 62-55 62-149t-61-152q-62-58-168-59zm144-607q0 89-40 142-40 54-109 54-68 0-110-56t-42-146q0-89 41-142 41-54 111-54t110 56q39 56 39 146zM604-35q74 0 127 25t53 71v27q-96-74-247-74-221 0-365 146T27 552q0 248 144 406t366 158q168 0 268-86v60h446V152q0-274-173-410T637-393q-119-1-251 31t-218 75L293 31q147-66 311-66z"/><glyph glyph-name="Gcommaaccent" unicode="Ģ" horiz-adv-x="1529" d="M625-253q0 75 58 132t147 57q88 0 148-54 60-56 60-176t-68-236-177-193L657-573q96 70 115 127-70 16-108 67t-39 126zM793-27q-354 0-566 210Q16 394 16 714t215 533 557 213q385 0 611-233l-289-312q-119 105-254 105t-216-84-81-221 79-223 201-86 185 38v56H862v346h627V209Q1219-27 793-27z"/><glyph glyph-name="gcommaaccent" unicode="ģ" horiz-adv-x="1302" d="M856 1355q0-75-58-132t-148-57-148 54q-60 56-60 176t68 235q68 116 178 194l135-150q-96-70-114-127 71-16 109-67t38-126zm-61-801q0 89-40 142-40 54-109 54-68 0-110-56t-42-146q0-89 41-142 41-54 111-54t110 56q39 56 39 146zM604-35q74 0 127 25t53 71v27q-96-74-247-74-221 0-365 146T27 552q0 248 144 406t366 158q168 0 268-86v60h446V152q0-274-173-410T637-393q-119-1-251 31t-218 75L293 31q147-66 311-66z"/><glyph glyph-name="Hcircumflex" unicode="Ĥ" horiz-adv-x="1466" d="M786 1518l-49 79-49-79H297l217 319h447l217-319H786zM61 0v1434h521V918h303v516h520V0H885v514H582V0H61z"/><glyph glyph-name="hcircumflex" unicode="ĥ" horiz-adv-x="1196" d="M670 1518l-49 79-50-79H180l217 319h447l217-319H670zm106-402q178 0 274-112 95-113 95-308V0H678v643q0 96-80 96-36-1-58-29t-22-67V0H51v1479h467V997q38 45 108 82t150 37z"/><glyph glyph-name="Hbar" unicode="Ħ" horiz-adv-x="1466" d="M401 1530v299h674v-299H401zM61 0v1434h521V918h303v516h520V0H885v514H582V0H61z"/><glyph glyph-name="hbar" unicode="ħ" horiz-adv-x="1249" d="M35 1161v252h69v66h467v-66h246v-252H571v-157q37 44 105 78t143 34q179 0 279-114t100-306V0H731v643q0 96-80 96-37-1-59-29t-21-67V0H104v1161H35z"/><glyph glyph-name="Itilde" unicode="Ĩ" horiz-adv-x="643" d="M477 1507q-53 0-128 30t-101 30q-53 0-53-62h-310q0 162 73 256t208 94q53 1 128-29t101-30q53 0 54 62h309q0-162-73-256t-208-95zM61 0v1434h521V0H61z"/><glyph glyph-name="itilde" unicode="ĩ" d="M440 1163q-53 0-128 30t-101 30q-53 0-53-62h-310q0 162 73 256t208 94q53 1 128-29t101-30q53 0 54 61h309q0-162-73-256t-208-94zM51 0v1090h467V0H51z"/><glyph glyph-name="Imacron" unicode="Ī" horiz-adv-x="643" d="M-14 1530v299h673v-299H-14zM61 0v1434h521V0H61z"/><glyph glyph-name="imacron" unicode="ī" d="M-51 1186v299h674v-299H-51zM51 0v1090h467V0H51z"/><glyph glyph-name="Ibreve" unicode="Ĭ" horiz-adv-x="643" d="M320 1503q-183 0-286 95t-104 253h346q0-92 44-92t45 92h348q0-158-105-253t-288-95zM61 0v1434h521V0H61z"/><glyph glyph-name="ibreve" unicode="ĭ" d="M676 1507q0-158-104-253t-288-95q-183 0-287 95-103 95-103 253h346q0-92 44-92t44 92h348zM51 0v1090h467V0H51z"/><glyph glyph-name="Iogonek" unicode="Į" horiz-adv-x="643" d="M61 0v1434h521V0q-33-12-59-38t-25-56q0-57 84-58v-266q-98-31-181-31-291 0-290 213 0 80 62 146T311 0H61z"/><glyph glyph-name="iogonek" unicode="į" d="M285 1116q-115 0-185 64t-70 162q0 99 70 163 70 63 185 63t185-62q70-64 69-164 1-100-69-162-70-64-185-64zM51 0v1090h467V0q-84-33-84-92t84-60v-266q-96-31-180-31-291 0-291 213 1 80 63 146T248 0H51z"/><glyph glyph-name="Idotaccent" unicode="İ" horiz-adv-x="643" d="M324 1505q-106 1-168 59t-62 151 62 149 168 57q106 0 168-56 62-55 61-149 1-94-61-152t-168-59zM61 0v1434h521V0H61z"/><glyph glyph-name="dotlessi" unicode="ı" d="M51 0v1090h467V0H51z"/><glyph glyph-name="IJ" unicode="Ĳ" horiz-adv-x="1501" d="M920 1434h520V399q0-412-484-411-145 0-290 37l51 391q57-14 110-15 92 0 93 78v955zM61 0v1434h521V0H61z"/><glyph glyph-name="ij" unicode="ĳ" horiz-adv-x="1138" d="M854 1116q-114 0-184 66t-70 165 70 165 184 65q114 0 184-66 70-67 70-165t-70-164-184-66zM621 27v1063h466V14q0-408-487-407-74 0-129 16v328q31-4 61-4 89 0 89 80zM285 1116q-115 0-185 66t-70 165 70 165 185 65q115 0 185-66 70-67 69-165 1-98-69-164t-185-66zM51 0v1090h467V0H51z"/><glyph glyph-name="Jcircumflex" unicode="Ĵ" horiz-adv-x="858" d="M580 1518l-50 79-49-79H90l217 319h447l217-319H580zM276 479v955h521V399q0-412-484-411-145 0-290 37l51 391q57-14 110-15 92 0 92 78z"/><glyph glyph-name="jcircumflex" unicode="ĵ" d="M336 1174l-49 79-49-79h-392l217 319h447l217-319H336zM51 37v1053h467V14q0-408-487-407-96 0-152 16v340q39-6 84-6 88 0 88 80z"/><glyph glyph-name="Kcommaaccent" unicode="Ķ" horiz-adv-x="1431" d="M481-253q1 75 59 132t147 57 149-54q60-56 59-176 0-120-68-236T649-723L514-573q96 70 115 127-70 16-109 67t-39 126zM61 0v1434h521V913l245 521h568l-355-684L1409 0H831L582 590V0H61z"/><glyph glyph-name="kcommaaccent" unicode="ķ" horiz-adv-x="1245" d="M360-253q0 75 58 132t148 57q88 0 148-54 60-56 60-176t-68-236-178-193L393-573q96 70 115 127-70 16-109 67t-39 126zM51 0v1479h467V717l178 373h512L934 590 1227 0H692L518 420V0H51z"/><glyph glyph-name="kgreenlandic" unicode="ĸ" horiz-adv-x="1245" d="M51 0v1090h467V709l178 381h512L934 582 1227 0H692L518 412V0H51z"/><glyph glyph-name="Lacute" unicode="Ĺ" horiz-adv-x="1001" d="M94 1518l144 319h483l-244-319H94zM61 0v1434h521V403h393V0H61z"/><glyph glyph-name="lacute" unicode="ĺ" d="M49 1518l144 319h483l-244-319H49zM51 0v1479h467V0H51z"/><glyph glyph-name="Lcommaaccent" unicode="Ļ" horiz-adv-x="1001" d="M281-253q0 75 58 132t147 57q88 0 148-54 60-56 60-176t-68-236-177-193L313-573q96 70 115 127-70 16-109 67-38 51-38 126zM61 0v1434h521V403h393V0H61z"/><glyph glyph-name="lcommaaccent" unicode="ļ" d="M82-253q0 75 58 132t148 57 148-54q60-56 60-176t-68-236-178-193L115-573q96 70 114 127-71 16-109 67T82-253zM51 0v1479h467V0H51z"/><glyph glyph-name="Lcaron" unicode="Ľ" horiz-adv-x="1001" d="M61 0v1434h521V403h393V0H61zm590 1077l15 357h319l-102-357H651z"/><glyph glyph-name="lcaron" unicode="ľ" d="M51 0v1479h467V0H51zm531 1122l14 357h319l-102-357H582z"/><glyph glyph-name="Ldot" unicode="Ŀ" horiz-adv-x="1128" d="M892 518q-112 0-184 69t-73 169q0 100 72 169 73 69 185 69t184-70q72-68 73-168 0-100-73-169-72-69-184-69zM61 0v1434h521V403h393V0H61z"/><glyph glyph-name="ldot" unicode="ŀ" horiz-adv-x="1118" d="M588 774q0 100 71 169 72 69 185 69 114 0 186-69t72-169-73-169-185-69-184 69-72 169zM51 0v1479h467V0H51z"/><glyph glyph-name="Lslash" unicode="Ł" horiz-adv-x="1077" d="M137 1434h520v-414l172 90V713l-172-88V403h394V0H137v360L23 303v385l114 60v686z"/><glyph glyph-name="lslash" unicode="ł" horiz-adv-x="710" d="M121 1479h467v-430l96 51V686l-96-51V0H121v385l-96-49v405l96 52v686z"/><glyph glyph-name="Nacute" unicode="Ń" horiz-adv-x="1474" d="M459 1518l143 319h483l-243-319H459zM61 0v1434h527l311-674v674h514V0H887L575 674V0H61z"/><glyph glyph-name="nacute" unicode="ń" horiz-adv-x="1187" d="M281 1174l143 319h483l-243-319H281zm491-58q170 0 267-112t98-308V0H670v643q0 96-76 96-37 1-56-27t-20-69V0H51v1090h447v-91q104 117 274 117z"/><glyph glyph-name="Ncommaaccent" unicode="Ņ" horiz-adv-x="1474" d="M530-253q0 75 58 132t148 57q88 0 148-54 60-56 60-176t-68-236-178-193L563-573q96 70 115 127-70 16-109 67t-39 126zM61 0v1434h527l311-674v674h514V0H887L575 674V0H61z"/><glyph glyph-name="ncommaaccent" unicode="ņ" horiz-adv-x="1187" d="M387-253q0 75 58 132 57 57 147 57t149-54q59-56 59-176t-67-236q-68-116-178-193L420-573q96 70 115 127-70 16-109 67t-39 126zm385 1369q170 0 267-112t98-308V0H670v643q0 96-76 96-37 1-56-27t-20-69V0H51v1090h447v-91q104 117 274 117z"/><glyph glyph-name="Ncaron" unicode="Ň" horiz-adv-x="1474" d="M737 1757l49 80h392l-217-319H514l-217 319h391zM61 0v1434h527l311-674v674h514V0H887L575 674V0H61z"/><glyph glyph-name="ncaron" unicode="ň" horiz-adv-x="1187" d="M594 1413l49 80h391l-217-319H371l-217 319h391zm178-297q170 0 267-112t98-308V0H670v643q0 96-76 96-37 1-56-27t-20-69V0H51v1090h447v-91q104 117 274 117z"/><glyph glyph-name="napostrophe" unicode="ŉ" horiz-adv-x="1368" d="M-172 1369q0 75 58 132t148 57 148-54q60-56 60-176t-68-236T-4 899l-135 150q96 70 114 127-71 16-109 67t-38 126zm1124-253q170 0 268-112 97-113 97-308V0H850v643q0 96-76 96-37 1-56-27t-20-69V0H231v1090h447v-91q104 117 274 117z"/><glyph glyph-name="Eng" unicode="Ŋ" horiz-adv-x="1474" d="M801-39q98 0 98 78L575 674V0H61v1434h527l311-641v641h514V-4q0-412-483-412-146 0-291 37l51 354q57-14 111-14z"/><glyph glyph-name="eng" unicode="ŋ" horiz-adv-x="1187" d="M670 18v625q0 96-76 96-37 1-56-27t-20-69V0H51v1090h447v-84q36 42 106 76t146 34q184 0 285-112t102-308V14q0-408-488-407-96 0-151 16v322q39-6 84-6 88-1 88 79z"/><glyph glyph-name="Omacron" unicode="Ō" horiz-adv-x="1617" d="M469 1530v299h674v-299H469zm339-498q-118 0-184-87t-65-228q0-141 66-229 65-88 183-87 118 0 184 87 66 86 67 228-1 142-67 229t-184 87zm1-1059q-360 0-577 212Q16 396 16 716t217 532 575 212 576-212 218-532-216-531Q1170-27 809-27z"/><glyph glyph-name="omacron" unicode="ō" horiz-adv-x="1302" d="M313 1186v299h674v-299H313zm185-639q0-93 39-149t107-56 106 56 38 148-38 148q-39 56-107 56-69 0-107-56t-38-147zm762 0q0-248-172-411T643-27q-272 0-444 163T27 547q0 247 172 409t444 162q273 0 445-162t172-409z"/><glyph glyph-name="Obreve" unicode="Ŏ" horiz-adv-x="1617" d="M1212 1851q0-158-104-253t-288-95q-183 0-286 95t-104 253h346q0-92 44-92t44 92h348zm-404-819q-118 0-184-87t-65-228q0-141 66-229 65-88 183-87 118 0 184 87 66 86 67 228-1 142-67 229t-184 87zm1-1059q-360 0-577 212Q16 396 16 716t217 532 575 212 576-212 218-532-216-531Q1170-27 809-27z"/><glyph glyph-name="obreve" unicode="ŏ" horiz-adv-x="1302" d="M654 1159q-183 0-286 95t-104 253h346q0-92 44-92t44 92h349q0-158-105-253t-288-95zM498 547q0-93 39-149t107-56 106 56 38 148-38 148q-39 56-107 56-69 0-107-56t-38-147zm762 0q0-248-172-411T643-27q-272 0-444 163T27 547q0 247 172 409t444 162q273 0 445-162t172-409z"/><glyph glyph-name="Ohungarumlaut" unicode="Ő" horiz-adv-x="1617" d="M821 1518l142 319h387l-179-319H821zm-434 0l141 319h387l-178-319H387zm421-486q-118 0-184-87t-65-228q0-141 66-229 65-88 183-87 118 0 184 87 66 86 67 228-1 142-67 229t-184 87zm1-1059q-360 0-577 212Q16 396 16 716t217 532 575 212 576-212 218-532-216-531Q1170-27 809-27z"/><glyph glyph-name="ohungarumlaut" unicode="ő" horiz-adv-x="1302" d="M655 1174l142 319h387l-178-319H655zm-434 0l141 319h388l-179-319H221zm277-627q0-93 39-149t107-56 106 56 38 148-38 148q-39 56-107 56-69 0-107-56t-38-147zm762 0q0-248-172-411T643-27q-272 0-444 163T27 547q0 247 172 409t444 162q273 0 445-162t172-409z"/><glyph glyph-name="OE" unicode="Œ" horiz-adv-x="2056" d="M808 1032q-118 0-184-87t-65-228q0-141 66-229 65-88 183-87 118 0 184 87 66 86 67 228-1 142-67 229t-184 87zm1-1059q-360 0-577 212Q16 396 16 716t217 532 576 212q113 0 229-26h957v-404h-469q29-66 41-119h387V532h-385q-16-68-43-129h469V0h-957Q922-27 809-27z"/><glyph glyph-name="oe" unicode="œ" horiz-adv-x="1992" d="M1399 774q-45 0-77-28t-36-70h223q-1 42-33 70t-77 28zM498 547q0-89 42-147t112-58 111 57q42 57 42 147t-42 147-112 57q-69 0-111-56t-42-147zM651-27q-272 0-448 163T27 547q0 247 175 409t449 162q217 0 381-119 143 119 354 119 272 0 429-154 156-155 155-409l-6-117h-694q12-51 60-82t112-30q119 0 186 75l316-172q-35-71-172-163t-352-92-378 126Q876-27 651-27z"/><glyph glyph-name="Racute" unicode="Ŕ" horiz-adv-x="1294" d="M334 1518l143 319h484l-244-319H334zm231-674h62q47 0 75 30t27 70q0 39-28 70t-74 30h-62V844zM61 0v1434h637q246 0 389-132t144-333q0-119-65-216t-162-153L1331 0H768L565 463V0H61z"/><glyph glyph-name="racute" unicode="ŕ" horiz-adv-x="817" d="M141 1174l144 319h483l-244-319H141zm637-58V694q-40 14-100 14t-110-54-50-146V0H51v1090h457V971q34 55 108 100t162 45z"/><glyph glyph-name="Rcommaaccent" unicode="Ŗ" horiz-adv-x="1294" d="M436-253q0 75 58 132t148 57q88 0 148-54 60-56 60-176t-68-236-178-193L469-573q96 70 115 127-70 16-109 67t-39 126zM565 844h62q47 0 75 30t27 70q0 39-28 70t-74 30h-62V844zM61 0v1434h637q246 0 389-132t144-333q0-119-65-216t-162-153L1331 0H768L565 463V0H61z"/><glyph glyph-name="rcommaaccent" unicode="ŗ" horiz-adv-x="817" d="M115-253q0 75 58 132t147 57q88 0 148-54 60-56 60-176t-68-236-177-193L147-573q96 70 115 127-70 16-108 67t-39 126zm663 1369V694q-40 14-100 14t-110-54-50-146V0H51v1090h457V971q34 55 108 100t162 45z"/><glyph glyph-name="Rcaron" unicode="Ř" horiz-adv-x="1294" d="M553 1757l49 80h391l-217-319H330l-217 319h391zm12-913h62q47 0 75 30t27 70q0 39-28 70t-74 30h-62V844zM61 0v1434h637q246 0 389-132t144-333q0-119-65-216t-162-153L1331 0H768L565 463V0H61z"/><glyph glyph-name="rcaron" unicode="ř" horiz-adv-x="817" d="M410 1413l49 80h391l-217-319H186l-217 319h391zm368-297V694q-40 14-100 14t-110-54-50-146V0H51v1090h457V971q34 55 108 100t162 45z"/><glyph glyph-name="Sacute" unicode="Ś" horiz-adv-x="1181" d="M375 1518l143 319h483l-243-319H375zM584 395q41 0 41 33 0 57-149 117T210 695q-62 48-104 128-41 80-40 181 0 208 148 332t380 124 377-110q145-111 182-228L788 913q-27 53-69 93-43 38-87 38t-44-36 57-71q57-36 140-74t166-89 141-138 57-200q0-213-152-338T590-27q-121 0-223 37Q190 74 87 224q-42 60-64 122l370 201q90-152 191-152z"/><glyph glyph-name="sacute" unicode="ś" horiz-adv-x="1003" d="M285 1174l143 319h483l-243-319H285zm198-855q47 0 47 23 0 14-14 22t-63 22q-196 60-255 110-32 28-68 64-67 68-68 213-2 145 132 245t334 100q260 0 437-172L743 696q-92 82-190 82-45 0-45-26 0-16 20-26t89-32q69-21 117-40 161-64 213-161 34-62 34-145 0-180-131-277T504-27q-143-1-269 55T29 160l186 264q53-39 137-72t131-33z"/><glyph glyph-name="Scircumflex" unicode="Ŝ" horiz-adv-x="1181" d="M659 1518l-49 79-49-79H170l217 319h447l217-319H659zM584 395q41 0 41 33 0 57-149 117T210 695q-62 48-104 128-41 80-40 181 0 208 148 332t380 124 377-110q145-111 182-228L788 913q-27 53-69 93-43 38-87 38t-44-36 57-71q57-36 140-74t166-89 141-138 57-200q0-213-152-338T590-27q-121 0-223 37Q190 74 87 224q-42 60-64 122l370 201q90-152 191-152z"/><glyph glyph-name="scircumflex" unicode="ŝ" horiz-adv-x="1003" d="M578 1174l-50 79-49-79H88l217 319h447l217-319H578zm-95-855q47 0 47 23 0 14-14 22t-63 22q-196 60-255 110-32 28-68 64-67 68-68 213-2 145 132 245t334 100q260 0 437-172L743 696q-92 82-190 82-45 0-45-26 0-16 20-26t89-32q69-21 117-40 161-64 213-161 34-62 34-145 0-180-131-277T504-27q-143-1-269 55T29 160l186 264q53-39 137-72t131-33z"/><glyph glyph-name="Scedilla" unicode="Ş" horiz-adv-x="1181" d="M584 395q41 0 41 33 0 57-149 117T210 695q-62 48-104 128-41 80-40 181 0 208 148 332t380 124 377-110q145-111 182-228L788 913q-27 53-69 93-43 38-87 38t-44-36 57-71q57-36 140-74t166-89 141-138 57-200q0-190-123-312T690-20l-8-48q72-14 116-64t44-122q0-110-81-174t-199-64-224 43l51 197q35-14 81-14t46 39-61 39l-60-11L424-6Q264 31 163 133T23 346l370 201q90-152 191-152z"/><glyph glyph-name="scedilla" unicode="ş" horiz-adv-x="1003" d="M483 319q47 0 47 23 0 14-14 22t-63 22q-196 60-255 110-32 28-68 64-67 68-68 213-2 145 132 245t334 100q260 0 437-172L743 696q-92 82-190 82-45 0-45-26 0-16 20-26t89-32q69-21 117-40 161-64 213-161 34-62 34-145 0-156-98-250T614-18l-8-50q72-14 116-64t44-122q0-110-81-174t-199-64-224 43l51 197q35-14 81-14t46 39-61 39l-60-11L348-8Q156 37 29 160l186 264q53-39 137-72t131-33z"/><glyph glyph-name="Scaron" unicode="Š" horiz-adv-x="1181" d="M612 1757l50 80h391l-217-319H389l-217 319h391zM584 395q41 0 41 33 0 57-149 117T210 695q-62 48-104 128-41 80-40 181 0 208 148 332t380 124 377-110q145-111 182-228L788 913q-27 53-69 93-43 38-87 38t-44-36 57-71q57-36 140-74t166-89 141-138 57-200q0-213-152-338T590-27q-121 0-223 37Q190 74 87 224q-42 60-64 122l370 201q90-152 191-152z"/><glyph glyph-name="scaron" unicode="š" horiz-adv-x="1003" d="M535 1413l49 80h391l-217-319H311L94 1493h391zM483 319q47 0 47 23 0 14-14 22t-63 22q-196 60-255 110-32 28-68 64-67 68-68 213-2 145 132 245t334 100q260 0 437-172L743 696q-92 82-190 82-45 0-45-26 0-16 20-26t89-32q69-21 117-40 161-64 213-161 34-62 34-145 0-180-131-277T504-27q-143-1-269 55T29 160l186 264q53-39 137-72t131-33z"/><glyph glyph-name="Tcommaaccent" unicode="Ţ" horiz-adv-x="1142" d="M362-253q0 75 58 132t148 57q88 0 148-54 60-56 60-176t-68-236-178-193L395-573q96 70 115 127-70 16-109 67t-39 126zM311 0v1030H31v404h1083v-404H831V0H311z"/><glyph glyph-name="Tcommaaccent" unicode="Ț" horiz-adv-x="1142" d="M362-253q0 75 58 132t148 57q88 0 148-54 60-56 60-176t-68-236-178-193L395-573q96 70 115 127-70 16-109 67t-39 126zM311 0v1030H31v404h1083v-404H831V0H311z"/><glyph glyph-name="tcommaaccent" unicode="ţ" horiz-adv-x="788" d="M231-253q1 75 59 132t147 57 149-54q60-56 59-176 1-120-67-236T399-723L264-573q96 70 115 127-70 16-109 67t-39 126zm-94 1343v227h455v-227h170V750H592V428q0-72 102-72l74 6V4q-74-20-180-20-463 0-463 432v334H27v340h110z"/><glyph glyph-name="tcommaaccent" unicode="ț" horiz-adv-x="788" d="M231-253q1 75 59 132t147 57 149-54q60-56 59-176 1-120-67-236T399-723L264-573q96 70 115 127-70 16-109 67t-39 126zm-94 1343v227h455v-227h170V750H592V428q0-72 102-72l74 6V4q-74-20-180-20-463 0-463 432v334H27v340h110z"/><glyph glyph-name="Tcaron" unicode="Ť" horiz-adv-x="1142" d="M575 1757l50 80h391l-217-319H352l-217 319h391zM311 0v1030H31v404h1083v-404H831V0H311z"/><glyph glyph-name="tcaron" unicode="ť" horiz-adv-x="806" d="M137 1090v227h455v-227h170V750H592V428q0-72 102-72l74 6V4q-74-20-180-20-463 0-463 432v334H27v340h110zm498 32l14 357h320l-103-357H635z"/><glyph glyph-name="Tbar" unicode="Ŧ" horiz-adv-x="1142" d="M240 1530v299h673v-299H240zM311 0v1030H31v404h1083v-404H831V0H311z"/><glyph glyph-name="tbar" unicode="ŧ" horiz-adv-x="788" d="M137 1090v227h455v-227h170V750H592v-66h119V414H592q10-57 102-58l74 6V4q-74-20-180-20-463 0-463 430H27v270h98v66H27v340h110z"/><glyph glyph-name="Utilde" unicode="Ũ" horiz-adv-x="1445" d="M879 1507q-53 0-128 30t-102 30q-53 0-53-62H287q0 162 72 256 73 94 208 94 53 1 128-29t102-30q53 0 53 62h309q-1-162-73-256t-207-95zM722-27q-314 0-488 162Q61 297 61 563v871h521V551q0-72 38-111t102-39 104 39q38 39 38 111v883h520V563q0-266-174-428T722-27z"/><glyph glyph-name="utilde" unicode="ũ" horiz-adv-x="1185" d="M748 1163q-53 0-128 30t-102 30q-53 0-53-62H156q0 162 72 256 73 94 208 94 53 1 128-29t102-30q53 0 53 61h309q0-162-72-256t-208-94zM438-27Q252-28 152 78T51 377v713h467V446q0-96 76-96 37 0 56 28t20 68v644h467V0H690v84Q654 41 584 7T438-27z"/><glyph glyph-name="Umacron" unicode="Ū" horiz-adv-x="1445" d="M385 1530v299h674v-299H385zM722-27q-314 0-488 162Q61 297 61 563v871h521V551q0-72 38-111t102-39 104 39q38 39 38 111v883h520V563q0-266-174-428T722-27z"/><glyph glyph-name="umacron" unicode="ū" horiz-adv-x="1185" d="M256 1186v299h674v-299H256zM438-27Q252-28 152 78T51 377v713h467V446q0-96 76-96 37 0 56 28t20 68v644h467V0H690v84Q654 41 584 7T438-27z"/><glyph glyph-name="Ubreve" unicode="Ŭ" horiz-adv-x="1445" d="M1114 1851q0-158-104-253t-288-95q-183 0-287 95-103 95-103 253h346q0-92 44-92t44 92h348zM722-27q-314 0-488 162Q61 297 61 563v871h521V551q0-72 38-111t102-39 104 39q38 39 38 111v883h520V563q0-266-174-428T722-27z"/><glyph glyph-name="ubreve" unicode="ŭ" horiz-adv-x="1185" d="M983 1507q-1-158-105-253t-287-95-287 95q-103 95-103 253h346q0-92 44-92t44 92h348zM438-27Q252-28 152 78T51 377v713h467V446q0-96 76-96 37 0 56 28t20 68v644h467V0H690v84Q654 41 584 7T438-27z"/><glyph glyph-name="Uring" unicode="Ů" horiz-adv-x="1445" d="M723 1798q-29 0-49-20t-19-50q-1-30 19-50t49-21q29 0 48 20 19 21 19 51t-18 50q-20 20-49 20zm-262-71q0 99 76 163 75 64 185 64t186-64 75-162q0-98-76-162-75-64-185-64t-186 62q-76 64-75 163zM722-27q-314 0-488 162Q61 297 61 563v871h521V551q0-72 38-111t102-39 104 39q38 39 38 111v883h520V563q0-266-174-428T722-27z"/><glyph glyph-name="uring" unicode="ů" horiz-adv-x="1185" d="M598 1454q-28 0-48-20t-20-51q0-30 20-50t48-20q29 0 48 20 20 20 20 50 0 31-20 51t-48 20zm-262-71q0 99 76 163t186 64 184-64q76-64 76-162 0-100-76-163t-186-63-184 62q-76 64-76 163zM438-27Q252-28 152 78T51 377v713h467V446q0-96 76-96 37 0 56 28t20 68v644h467V0H690v84Q654 41 584 7T438-27z"/><glyph glyph-name="Uhungarumlaut" unicode="Ű" horiz-adv-x="1445" d="M735 1518l142 319h387l-179-319H735zm-434 0l141 319h387l-178-319H301zM722-27q-314 0-488 162Q61 297 61 563v871h521V551q0-72 38-111t102-39 104 39q38 39 38 111v883h520V563q0-266-174-428T722-27z"/><glyph glyph-name="uhungarumlaut" unicode="ű" horiz-adv-x="1185" d="M596 1174l141 319h387l-178-319H596zm-434 0l141 319h387l-178-319H162zM438-27Q252-28 152 78T51 377v713h467V446q0-96 76-96 37 0 56 28t20 68v644h467V0H690v84Q654 41 584 7T438-27z"/><glyph glyph-name="Uogonek" unicode="Ų" horiz-adv-x="1445" d="M721-27q-313 0-487 162Q61 297 61 563v871h521V551q0-72 38-111t102-39 104 39q38 39 38 111v883h520V563q0-338-266-495-96-57-96-131 0-41 35-65t67-24v-266q-98-31-192-31-291 0-291 213 0 64 40 120t99 91q-39-2-59-2z"/><glyph glyph-name="uogonek" unicode="ų" horiz-adv-x="1185" d="M664-236q0 80 62 146T864 0H688v84Q652 41 582 7T436-27Q252-27 151 86T49 393v697h467V446q0-96 76-96 37 0 56 28t20 68v644h467V0q-84-35-84-93t84-59v-266q-98-31-181-31-290 0-290 213z"/><glyph glyph-name="Wcircumflex" unicode="Ŵ" horiz-adv-x="2166" d="M1133 1518l-50 79-49-79H643l217 319h447l217-319h-391zM1257 0l-174 752L909 0H387L14 1434h555l133-789 177 789h409l176-789 133 789h555L1780 0h-523z"/><glyph glyph-name="wcircumflex" unicode="ŵ" horiz-adv-x="1789" d="M946 1174l-49 79-49-79H457l217 319h446l217-319H946zM983 0l-90 401L809 0H305L16 1090h508l70-537 94 537h414l94-541 72 541h508L1485 0H983z"/><glyph glyph-name="Ycircumflex" unicode="Ŷ" horiz-adv-x="1449" d="M774 1518l-49 79-49-79H285l217 319h446l217-319H774zM985 0H465v612L16 1434h576l143-408 144 408h555L985 612V0z"/><glyph glyph-name="ycircumflex" unicode="ŷ" horiz-adv-x="1277" d="M694 1174l-49 79-49-79H205l217 319h446l217-319H694zm21-1541H274L422 55 14 1090h500l127-515 137 515h486z"/><glyph glyph-name="Ydieresis" unicode="Ÿ" horiz-adv-x="1449" d="M760 1659q0 76 51 126t139 50 140-50 51-126q0-76-50-125-51-49-141-49t-140 49-50 125zm-449 0q0 76 51 126 52 50 140 50t139-50 51-126-50-125-140-49-141 49q-50 49-50 125zM985 0H465v612L16 1434h576l143-408 144 408h555L985 612V0z"/><glyph glyph-name="Zacute" unicode="Ź" horiz-adv-x="1277" d="M379 1518l143 319h484l-244-319H379zM27 0v268l538 766H41v400h1204v-267L700 403h551V0H27z"/><glyph glyph-name="zacute" unicode="ź" horiz-adv-x="999" d="M262 1174l144 319h483l-244-319H262zM29 0v240l348 499H35v351h923V850L604 352h357V0H29z"/><glyph glyph-name="Zdotaccent" unicode="Ż" horiz-adv-x="1277" d="M651 1505q-105 1-167 59t-62 151 61 149 167 57q106 0 168-56 62-55 62-149t-61-152q-62-58-168-59zM27 0v268l538 766H41v400h1204v-267L700 403h551V0H27z"/><glyph glyph-name="zdotaccent" unicode="ż" horiz-adv-x="999" d="M500 1161q-106 1-168 59t-62 151 62 149 168 57q106 0 168-56 62-55 61-149 1-94-61-152t-168-59zM29 0v240l348 499H35v351h923V850L604 352h357V0H29z"/><glyph glyph-name="Zcaron" unicode="Ž" horiz-adv-x="1277" d="M657 1757l50 80h391l-217-319H434l-217 319h391zM27 0v268l538 766H41v400h1204v-267L700 403h551V0H27z"/><glyph glyph-name="zcaron" unicode="ž" horiz-adv-x="999" d="M500 1413l49 80h391l-217-319H276L59 1493h392zM29 0v240l348 499H35v351h923V850L604 352h357V0H29z"/><glyph glyph-name="florin" unicode="ƒ" horiz-adv-x="1034" d="M100-381q-78 0-180 21l43 340q47-10 86-11 84 0 92 72l74 549H115v336h143l23 155q55 383 499 383 98 0 181-16l-43-344q-45 10-82 10-88 0-97-72l-14-116h133V590H676L600 2q-51-383-500-383z"/><glyph glyph-name="Aringacute" unicode="Ǻ" horiz-adv-x="1523" d="M696 1488q0-30 20-50t48-20q29 0 48 20t19 50-19 50-48 20q-28 0-48-20t-20-50zm133-904l-79 295-82-295h161zM535 1753l127 309h483l-227-309H535zm-33-266q0 99 76 163t186 64 184-63q76-63 76-162 0-33-8-57L1513 0H981l-63 219H582L518 0H10l498 1436q-6 24-6 51z"/><glyph glyph-name="aringacute" unicode="ǻ" horiz-adv-x="1138" d="M375 1632l141 301h483l-241-301H375zm157-255q0-30 20-50t48-20q29 0 48 20 20 20 20 50t-20 50q-20 21-48 21t-48-20-20-51zm-194 0q0 99 76 163t186 64 184-64q76-64 76-162 0-100-76-164t-186-63q-110-1-184 63-76 64-76 163zM475 360q0-31 27-49 28-18 64-18t63 18 26 49q0 31-26 50-27 18-64 18t-63-18-27-50zM27 320q0 168 119 258 120 90 303 90 104 0 188-37v37q0 34-37 56t-104 21q-135 0-271-67L74 977q230 141 504 141t395-130 121-343V0H694l-20 72Q572-26 408-26T135 62Q27 152 27 320z"/><glyph glyph-name="AEacute" unicode="Ǽ" horiz-adv-x="1880" d="M895 1487l143 319h484l-244-319H895zm29-903v321L768 584h156zm0-584v219H596L492 0H-27l783 1434h1063v-404h-377V911h336V532h-336V403h377V0H924z"/><glyph glyph-name="aeacute" unicode="ǽ" horiz-adv-x="1818" d="M664 1174l143 319h483l-243-319H664zm561-400q-45 0-77-28t-36-70h223q-1 42-33 70t-77 28zM565 424q-35 0-61-18t-25-47q0-30 26-46 27-16 61-16t60 16 26 46-26 48q-26 17-61 17zM451 668q106 0 186-35v35q0 72-135 72t-271-68L74 971q94 67 229 107t275 40q211 0 329-98 125 98 322 98 259 0 413-156t154-407l-6-117h-694q12-51 60-82t112-30q119 0 186 75l315-172q-35-71-172-163t-337-93q-285 0-445 181Q686-26 428-27q-170 0-286 90Q26 152 26 320t121 258 304 90z"/><glyph glyph-name="Oslashacute" unicode="Ǿ" horiz-adv-x="1617" d="M598 1518l143 319h484l-244-319H598zm211-486q-119 0-185-87t-65-226q0-41 2-60l301 367q-24 6-53 6zm250-313q0 20-4 57L752 408q27-6 57-7 117-1 183 87t67 231zM809-27q-195 0-358 68L354-78 117 117l82 100Q16 418 16 727t217 521 576 212q190 0 352-67l99 118 239-194-84-100q187-203 187-511t-216-521Q1170-27 809-27z"/><glyph glyph-name="oslashacute" unicode="ǿ" horiz-adv-x="1234" d="M393 1174l144 319h483l-244-319H393zm258-832q70 0 112 57t42 152L606 348q20-6 45-6zM498 547v-15l202 207q-25 10-49 11-69 0-111-56t-42-147zm778 0q0-248-176-411T651-27q-188 0-336 80l-96-98L70 98l86 86Q27 340 27 547q0 247 175 409t449 162q188 0 340-84l76 78 150-143-66-68q125-153 125-354z"/><glyph glyph-name="Scommaaccent" unicode="Ș" horiz-adv-x="1181" d="M393-253q1 75 59 132t147 57 149-54q60-56 59-176 0-120-68-236T561-723L426-573q96 70 115 127-70 16-109 67t-39 126zm191 648q41 0 41 33 0 57-149 117T210 695q-62 48-104 128-41 80-40 181 0 208 148 332t380 124 377-110q145-111 182-228L788 913q-27 53-69 93-43 38-87 38t-44-36 57-71q57-36 140-74t166-89 141-138 57-200q0-213-152-338T590-27q-121 0-223 37Q190 74 87 224q-42 60-64 122l370 201q90-152 191-152z"/><glyph glyph-name="scommaaccent" unicode="ș" horiz-adv-x="1003" d="M295-253q0 75 58 132 57 57 147 57t149-54q59-56 59-176t-67-236q-68-116-178-193L328-573q96 70 114 127-70 16-108 67t-39 126zm188 572q47 0 47 23 0 14-14 22t-63 22q-196 60-255 110-32 28-68 64-67 68-68 213-2 145 132 245t334 100q260 0 437-172L743 696q-92 82-190 82-45 0-45-26 0-16 20-26t89-32q69-21 117-40 161-64 213-161 34-62 34-145 0-180-131-277T504-27q-143-1-269 55T29 160l186 264q53-39 137-72t131-33z"/><glyph glyph-name="dotlessj" unicode="ȷ" d="M51 37v1053h467V14q0-408-487-407-96 0-152 16v340q39-6 84-6 88 0 88 80z"/><glyph glyph-name="circumflex" unicode="ˆ" horiz-adv-x="921" d="M510 1174l-49 79-49-79H20l218 319h446l217-319H510z"/><glyph glyph-name="caron" unicode="ˇ" horiz-adv-x="921" d="M461 1413l49 80h391l-217-319H238L20 1493h392z"/><glyph glyph-name="breve" unicode="˘" horiz-adv-x="917" d="M850 1507q0-158-104-253t-288-95q-183 0-287 95-103 95-103 253h346q0-92 44-92t44 92h348z"/><glyph glyph-name="dotaccent" unicode="˙" horiz-adv-x="917" d="M459 1161q-105 1-167 59t-62 151 60 149q62 56 168 57 106 0 168-56 62-55 62-149t-62-152-167-59z"/><glyph glyph-name="ring" unicode="˚" horiz-adv-x="917" d="M459 1454q-29 0-49-20t-19-51q-1-30 19-50t49-20 48 20 19 50q0 31-19 51t-48 20zm-262-71q0 99 75 163 76 64 186 64t186-64 75-162q0-100-76-163-75-63-185-63t-186 62q-76 64-75 163z"/><glyph glyph-name="ogonek" unicode="˛" horiz-adv-x="921" d="M225-236q1 80 63 146T426 0h264q-30-12-54-38t-24-56q0-57 84-58v-266q-98-31-180-31-291 0-291 213z"/><glyph glyph-name="tilde" unicode="˜" horiz-adv-x="919" d="M614 1163q-53 0-128 30t-101 30q-53 0-53-62H23q0 162 72 256 73 94 208 94 53 1 128-29t101-30q53 0 54 61h309q0-162-73-256t-208-94z"/><glyph glyph-name="hungarumlaut" unicode="˝" horiz-adv-x="1042" d="M473 1174l141 319h387l-178-319H473zm-434 0l141 319h387l-178-319H39z"/><glyph glyph-name="Wgrave" unicode="Ẁ" horiz-adv-x="2166" d="M1114 1837l143-319H874l-243 319h483zM1257 0l-174 752L909 0H387L14 1434h555l133-789 177 789h409l176-789 133 789h555L1780 0h-523z"/><glyph glyph-name="wgrave" unicode="ẁ" horiz-adv-x="1789" d="M967 1493l143-319H727l-244 319h484zM983 0l-90 401L809 0H305L16 1090h508l70-537 94 537h414l94-541 72 541h508L1485 0H983z"/><glyph glyph-name="Wacute" unicode="Ẃ" horiz-adv-x="2166" d="M872 1518l144 319h483l-244-319H872zM1257 0l-174 752L909 0H387L14 1434h555l133-789 177 789h409l176-789 133 789h555L1780 0h-523z"/><glyph glyph-name="wacute" unicode="ẃ" horiz-adv-x="1789" d="M662 1174l143 319h483l-244-319H662zM983 0l-90 401L809 0H305L16 1090h508l70-537 94 537h414l94-541 72 541h508L1485 0H983z"/><glyph glyph-name="Wdieresis" unicode="Ẅ" horiz-adv-x="2166" d="M1116 1665q0 76 51 126t139 50 140-50q51-50 51-126t-50-125-140-49-141 49q-50 49-50 125zm-448 0q0 76 51 126t139 50 139-50 51-126-50-125-140-49-140 49-50 125zM1257 0l-174 752L909 0H387L14 1434h555l133-789 177 789h409l176-789 133 789h555L1780 0h-523z"/><glyph glyph-name="wdieresis" unicode="ẅ" horiz-adv-x="1789" d="M928 1339q0 76 51 126 51 51 139 51t139-50 51-127q0-76-50-125t-140-49-140 49-50 125zm-449 0q0 76 51 126 52 51 140 51t139-50 51-127q0-76-50-125t-140-49-141 49q-50 49-50 125zM983 0l-90 401L809 0H305L16 1090h508l70-537 94 537h414l94-541 72 541h508L1485 0H983z"/><glyph glyph-name="Ygrave" unicode="Ỳ" horiz-adv-x="1449" d="M797 1837l143-319H557l-244 319h484zM985 0H465v612L16 1434h576l143-408 144 408h555L985 612V0z"/><glyph glyph-name="ygrave" unicode="ỳ" horiz-adv-x="1275" d="M715 1493l143-319H475l-244 319h484zm0-1860H274L422 55 14 1090h500l127-515 137 515h486z"/><glyph glyph-name="endash" unicode="–" horiz-adv-x="1443" d="M80 467v342h1284V467H80z"/><glyph glyph-name="emdash" unicode="—" horiz-adv-x="2017" d="M92 467v342h1831V467H92z"/><glyph glyph-name="quoteleft" unicode="‘" horiz-adv-x="694" d="M604 928q0-88-72-157t-184-69-186 70q-72 70-72 189 0 165 84 319t236 252l182-205q-109-66-156-162 168-64 168-237z"/><glyph glyph-name="quoteright" unicode="’" horiz-adv-x="694" d="M90 1306q0 88 72 157t184 69 186-70q72-70 72-188 0-166-84-320T285 702L102 907q109 66 156 162-168 64-168 237z"/><glyph glyph-name="quotesinglbase" unicode="‚" horiz-adv-x="550" d="M18 223q0 88 72 157t184 69 186-70q73-70 72-189 0-166-84-320T213-381L31-176q109 66 155 162Q18 50 18 223z"/><glyph glyph-name="quotedblleft" unicode="“" horiz-adv-x="1269" d="M1180 928q0-88-72-157t-184-69-186 70q-73 70-72 189 0 165 84 319t235 252l182-205q-109-66-155-162 168-64 168-237zm-576 0q0-88-72-157t-184-69-186 70q-72 70-72 189 0 165 84 319t236 252l182-205q-109-66-156-162 168-64 168-237z"/><glyph glyph-name="quotedblright" unicode="”" horiz-adv-x="1269" d="M90 1306q0 88 72 157t184 69 186-70q72-70 72-188 0-166-84-320T285 702L102 907q109 66 156 162-168 64-168 237zm576 0q0 88 71 157 72 69 185 69 114 0 186-70t72-188q0-166-84-320T860 702L678 907q109 66 156 162-168 64-168 237z"/><glyph glyph-name="quotedblbase" unicode="„" horiz-adv-x="1269" d="M90 223q0 88 72 157t184 69 186-70q72-70 72-189 0-166-84-320T285-381L102-176q109 66 156 162Q90 50 90 223zm576 0q0 88 71 157 72 69 185 69 114 0 186-70t72-189q0-166-84-320T860-381L678-176q109 66 156 162-168 64-168 237z"/><glyph glyph-name="dagger" unicode="†" horiz-adv-x="976" d="M258 0v752H16v362h242v320h461v-320h239V752H719V0H258z"/><glyph glyph-name="daggerdbl" unicode="‡" horiz-adv-x="974" d="M16 307v359h242v98H16v362h242v308h461v-308h239V764H719v-98h239V307H719V0H258v307H16z"/><glyph glyph-name="bullet" unicode="•" horiz-adv-x="831" d="M416 283q-152 0-252 102Q64 486 64 634t100 250 252 103q152 0 252-102 100-101 100-249T668 386 416 283z"/><glyph glyph-name="perthousand" unicode="‰" horiz-adv-x="2686" d="M2202 342q0-72 49-72t49 72-49 72-49-72zm450 0q0-156-114-262T2250-26 1963 80q-114 106-114 262t114 262 288 106q173 0 287-106t114-262zm-1306 0q0-72 49-72t49 72-49 72-49-72zm450 0q0-156-114-262T1394-26 1107 80Q993 186 993 342t114 262 288 106q173 0 287-106t114-262zM383 1092q0-72 49-72t49 72-49 71q-49 1-49-71zm451 0q0-156-114-262T432 723q-174 0-288 106Q30 936 30 1092t114 262 288 106 288-106 114-262zM190 0l1055 1434h393L584 0H190z"/><glyph glyph-name="guilsinglleft" unicode="‹" horiz-adv-x="753" d="M297 219L70 606l227 387h387L459 606l225-387H297z"/><glyph glyph-name="guilsinglright" unicode="›" horiz-adv-x="753" d="M684 606L457 219H70l225 387L70 993h387z"/><glyph glyph-name="fraction" unicode="⁄" horiz-adv-x="1130" d="M391-84H-14l753 1602h408z"/><glyph glyph-name="Euro" unicode="€" horiz-adv-x="1409" d="M41 440v246h94v55H41v260h152q82 197 270 329t432 132 414-102l-168-340q-100 55-218 55t-208-74h329l-28-260H627q-2-10-2-28l2-27h383l-23-246H727q63-72 199-72t233 66l160-334Q1176-27 915-27T458 101 190 440H41z"/><glyph glyph-name="numero" unicode="№" horiz-adv-x="2318" d="M1470 1079q0 160 114 271 114 110 290 110t290-110 114-271-114-271-290-110-290 110-114 271zm357 0q0-33 12-57t35-25q23 0 35 25 12 26 12 58t-12 57-35 25-35-26q-12-24-12-57zM61 0v1434h527l311-674v674h514V0H887L575 674V0H61zm1434 324v335h760V324h-760z"/><glyph glyph-name="trademark" unicode="™" horiz-adv-x="1714" d="M993 694H739v740h336l111-365 114 365h340V694h-254v338l-79-258h-234l-80 258V694zm-749 0v512H72v228h608v-228H508V694H244z"/><glyph glyph-name="minus" unicode="−" horiz-adv-x="1099" d="M20 469v332h1059V469H20z"/><glyph glyph-name="commaaccent" unicode="" horiz-adv-x="727" d="M156-253q0 75 58 132t147 57 149-54q60-56 59-176 1-120-67-236T324-723L188-573q96 70 115 127-71 16-109 67t-38 126z"/><glyph glyph-name="hyphen.caps" horiz-adv-x="829" d="M70 545v352h688V545H70z"/><glyph glyph-name="endash.caps" horiz-adv-x="1443" d="M68 555v342h1284V555H68z"/><glyph glyph-name="emdash.caps" horiz-adv-x="1966" d="M68 555v342h1830V555H68z"/><glyph glyph-name="guillemotleft.caps" horiz-adv-x="1210" d="M754 326L526 713l228 387h387L915 713l226-387H754zm-457 0L70 713l227 387h387L459 713l225-387H297z"/><glyph glyph-name="guillemotright.caps" horiz-adv-x="1210" d="M684 713L457 326H70l225 387-225 387h387zm457 0L913 326H526l226 387-226 387h387z"/><glyph glyph-name="guilsinglleft.caps" horiz-adv-x="753" d="M297 326L70 713l227 387h387L459 713l225-387H297z"/><glyph glyph-name="guilsinglright.caps" horiz-adv-x="753" d="M684 713L457 326H70l225 387-225 387h387z"/><glyph glyph-name="parenleft.caps" horiz-adv-x="780" d="M41 166v1098q0 248 166 376t457 129v-358q-88 0-125-37t-37-110V166q0-74 37-111t125-37v-358q-291 0-457 129T41 166z"/><glyph glyph-name="parenright.caps" horiz-adv-x="780" d="M739 1264V166q0-248-166-377T117-340V18q88 0 125 37t37 111v1098q0 74-37 110t-125 37v358q291-1 457-129t165-376z"/><glyph glyph-name="bracketleft.caps" horiz-adv-x="700" d="M41-340v2109h623v-358H502V18h162v-358H41z"/><glyph glyph-name="bracketright.caps" horiz-adv-x="700" d="M664 1769V-340H41V18h162v1393H41v358h623z"/><glyph glyph-name="braceleft.caps" horiz-adv-x="870" d="M41 518v395q72 0 110 33t37 133v185q0 246 176 376t470 129v-358q-182 0-183-147V987q0-102-57-174t-135-98q78-27 135-99t57-172V164q0-145 183-146v-358q-293 0-469 130T188 166v186q0 100-37 133-38 33-110 33z"/><glyph glyph-name="bar.caps" horiz-adv-x="643" d="M98-428v2302h447V-428H98z"/><glyph glyph-name="braceright.caps" horiz-adv-x="952" d="M911 913V518q-71 0-109-33t-38-133V166q0-246-176-376T119-340V18q182 0 182 146v280q0 100 57 172t136 99q-78 27-136 98-57 72-57 174v277q0 147-182 147v358q293 0 469-130t176-375v-185q0-100 38-133t109-33z"/><glyph glyph-name="slash.caps" horiz-adv-x="997" d="M-12-168l614 1757h410L397-168H-12z"/><glyph glyph-name="backslash.caps" horiz-adv-x="997" d="M397 1589l615-1757H602L-12 1589h409z"/><glyph glyph-name="exclamdown.caps" horiz-adv-x="671" d="M84 0l35 956h434L588 0H84zm250 985q-112 0-184 69t-72 169 73 169q73 68 185 68t184-68 72-169q0-100-73-169t-185-69z"/><glyph glyph-name="questiondown.caps" horiz-adv-x="1036" d="M817 1223q0-100-72-169-73-69-185-69t-184 69-73 169q0 100 73 169 72 68 184 68t184-68 73-169zm-33-267v-92q0-133-105-238-44-44-87-82-105-93-105-138 1-30 17-48t50-18 62 31 41 80l363-158Q903-26 522-27 301-27 158 87T14 385q0 136 112 248 46 45 93 85 113 96 113 171v67h452z"/><glyph glyph-name="periodcentered.caps" d="M27 707q0 100 71 169 72 68 185 68t185-68 73-169q0-100-73-169-72-69-184-69T99 538q-72 69-72 169z"/><glyph glyph-name="bullet.caps" horiz-adv-x="831" d="M416 373q-152 0-252 102Q64 576 64 724t100 250 252 103q152 0 252-102 100-101 100-249T668 476 416 373z"/><glyph glyph-name="zero.tab" horiz-adv-x="1298" d="M649 383q70 0 70 336t-70 336-70-336 70-336zm0-410q-291-1-431 185T78 717q0 743 571 743t572-743q-1-373-141-559T649-27z"/><glyph glyph-name="one.tab" horiz-adv-x="1298" d="M1190 0H143v387h320v621l-256-72-101 358 453 140h377V387h254V0z"/><glyph glyph-name="two.tab" horiz-adv-x="1298" d="M109 0v180q0 117 59 221 59 105 143 181t168 144 144 135q59 69 59 130 0 31-17 47t-44 17q-66 0-95-123l-438 90q39 186 172 312t379 126q245 0 399-120t154-336q0-86-35-166t-87-136Q966 591 843 511q-122-80-122-124h483V0H109z"/><glyph glyph-name="three.tab" horiz-adv-x="1298" d="M1139 1434v-355L936 895q122-43 194-147t72-273q0-223-158-362T643-27q-131 0-234 39T244 117Q128 243 96 383l430 94q8-43 34-69t63-27 63 23 27 64q0 40-32 67t-83 26H385v281l238 205H160v387h979z"/><glyph glyph-name="four.tab" horiz-adv-x="1298" d="M629 664v268L471 664h158zM33 291v295l532 848h559V664h142V291h-142V0H629v291H33z"/><glyph glyph-name="five.tab" horiz-adv-x="1298" d="M621 385q35 0 63 25 28 26 27 72 0 46-27 75t-77 29-72-56l-410 58 33 846h964v-387H584l-4-113q55 20 133 20 209 0 355-131t146-344-162-359T647-27q-131 0-236 39-105 38-170 102Q117 235 84 379l442 98q11-92 95-92z"/><glyph glyph-name="six.tab" horiz-adv-x="1298" d="M752 1460q236 0 399-102L987 995q-102 57-179 57t-119-39q-42-40-54-102 63 39 166 39 178 0 296-114 117-114 117-340 0-227-154-375Q905-26 662-27 82-27 82 639q0 259 82 450 47 111 120 191 74 80 194 130t274 50zM670 377q31 0 49 32 18 31 18 81t-23 88q-24 36-62 36t-64-20q-6-217 82-217z"/><glyph glyph-name="seven.tab" horiz-adv-x="1298" d="M94 1434h1108v-285L752 0H219l418 1053H94v381z"/><glyph glyph-name="eight.tab" horiz-adv-x="1298" d="M648 575q-40-1-62-35t-21-82q0-48 23-79 24-31 62-31t60 31 22 79-22 83q-22 34-62 34zm1 515q-33 0-50-28t-17-69q0-94 66-94 66-1 67 95 0 96-66 96zm0-1117q-266 0-419 130Q78 234 78 442t141 322q-113 102-113 275t146 297 397 124 397-124 146-297-113-275q141-114 141-322t-152-338Q915-26 649-27z"/><glyph glyph-name="nine.tab" horiz-adv-x="1298" d="M545-27Q309-27 145 76l164 362q101-57 179-57t120 40 54 101q-63-39-166-39-178 0-296 114T82 938q0 226 155 374t398 148q580 0 579-665 0-605-394-771-120-50-275-51zm82 1084q-31 0-49-32t-18-82 23-87 61-37 65 21q6 217-82 217z"/></font>
</defs>
</svg>
